<?xml version="1.0" encoding="UTF-8" standalone="no"?>
<svg
   width="500"
   height="500"
   version="1.1"
   id="svg698"
   sodipodi:docname="bobertCool.svg"
   inkscape:version="1.2.2 (b0a8486541, 2022-12-01)"
   inkscape:export-filename="../large/bobertCool.png"
   inkscape:export-xdpi="96"
   inkscape:export-ydpi="96"
   xmlns:inkscape="http://www.inkscape.org/namespaces/inkscape"
   xmlns:sodipodi="http://sodipodi.sourceforge.net/DTD/sodipodi-0.dtd"
   xmlns="http://www.w3.org/2000/svg"
   xmlns:svg="http://www.w3.org/2000/svg">
  <g
     id="g1131"
     inkscape:label="Bobert"
     transform="matrix(0.84228865,0,0,0.84228865,5.1206334,50.772428)">
    <path
       style="fill:#fba101;stroke:none"
       d="m 254.75878,5.8213411 c -24.247,3.18359 -49.081,0.89581 -73,7.0540099 -46.15199,11.88211 -86.040193,52.92931 -111.644293,91.521609 -6.6409,10.01 -11.1317,21.38 -13.9815,33 -1.5733,6.416 -0.8402,14.344 -4.5216,20 -13.5767,20.858 -31.1129,40.959 -40.97992,64 -16.0770226,37.542 -12.1532096,91.435 9.19212,126 17.0901,27.674 41.9707,47.357 68.9352,64.692 43.665003,28.071 87.818993,47.152 139.999993,52.138 23.585,2.254 48.291,0.17 72,0.17 23.536,0 48.657,2.581 72,-0.286 35.111,-4.312 76.177,-19.261 104,-41.38 16.381,-13.023 29.253,-29.926 43.17,-45.334 30.015,-33.231 53.292,-69.102 57.66,-115 6.713,-70.535 -24.302,-140.813 -71.92,-191.999999 -16.12,-17.3288 -36.737,-26.4319 -57.91,-35.8611 -47.374,-21.09795 -99.449,-29.1388999 -151,-29.1388999 -13.761,0 -28.352,-1.367645 -42,0.42438 z"
       id="path14"
       inkscape:label="Head" />
    <path
       style="fill:#010101;stroke:none"
       d="m 93,262 c 0.0499,18.074 11.31867,28.66244 23.46967,40.27644 7.779,7.436 16.49233,14.23556 27.53033,15.72356 0.51913,10.82219 -1.35937,14.76083 0,23 -2.653,12.365 -0.374,23.915 -2.325,36 -0.847,5.25 -4.246,15.682 -0.597,20.54 6.328,8.424 28.793,4.46 37.922,4.46 36.592,0 73.416,1.976 110,2 l 1,-53 -1,-18 v -1 c 11.319,2.101 23.17933,2.48054 34.53033,1.98354 20.002,-0.876 36.1029,1.11133 55.7019,-3.60967 6.963,-1.677 15.87677,-4.10787 21.71277,-8.90587 4.502,-3.702 6.74933,-9.55622 9.94533,-14.29122 C 415.03233,301.03878 419.595,296.798 420,289 c -12.492,8.839 -13.678,30.194 -30,34.482 -42.572,11.185 -90.513,6.585 -134,3.608 -31.857,-2.182 -64.909,-0.354 -96,-9.165 -6.637,-1.881 -14.645,-1.93 -20.91,-4.672 C 120.68,305.198 96.7026,282.846 95,262 Z"
       id="path300"
       sodipodi:nodetypes="ccccccsccccccccccccccc"
       inkscape:label="Mouth" />
    <path
       style="fill:#fef9c7;stroke:none"
       d="m 148,321 c 0,10.928 -2.438,21.262 -2.96,32 -0.363,7.469 1.975,14.753 1.695,22 -0.221,5.726 -6.364,15.875 -1.132,20.95 6.96,6.749 30.078,2.05 39.397,2.05 8.692,0 19.629,4.127 27,-1 -5.365,-14.001 -0.818,-34.89 -1.004,-50 -0.094,-7.635 -3.141,-12.389 2.004,-19 l -33,-2.054 z"
       id="path476"
       sodipodi:nodetypes="ccccscsccc"
       inkscape:label="Tooth" />
    <path
       style="fill:#fef9c7;stroke:none"
       d="m 215,331 0.004,48 -1.004,22 72,-1 c -1.956,-8.238 1.046,-15.838 1.823,-24 0.643,-6.758 -0.823,-14.135 -0.823,-21 0,-12.471 0.878,-20.693 -14,-21 -0.67,-4.484 -9.457,-3.102 -13,-2.588 C 245.063,333.579 229.939,331 215,331 Z"
       id="path552"
       sodipodi:nodetypes="cccccscsc"
       inkscape:label="Tooth" />
  </g>
  <defs
     id="defs702" />
  <sodipodi:namedview
     id="namedview700"
     pagecolor="#ffffff"
     bordercolor="#000000"
     borderopacity="0.25"
     inkscape:showpageshadow="2"
     inkscape:pageopacity="0.0"
     inkscape:pagecheckerboard="0"
     inkscape:deskcolor="#d1d1d1"
     showgrid="false"
     showguides="true"
     inkscape:zoom="0.70710678"
     inkscape:cx="236.88077"
     inkscape:cy="332.34019"
     inkscape:window-width="2560"
     inkscape:window-height="1367"
     inkscape:window-x="0"
     inkscape:window-y="0"
     inkscape:window-maximized="1"
     inkscape:current-layer="svg698" />
  <path
     class="fil0"
     d="m 158.01027,100.3066 114.70891,11.55807 1.17097,0.11799 114.70891,11.55807 c 0,0 42.72091,11.72009 50.12942,18.56281 7.40847,6.84266 26.50657,11.45115 10.3175,85.43117 -16.23415,73.97545 -82.46868,47.7392 -112.85137,27.79952 -30.38268,-19.93967 -46.86398,-84.38218 -47.49784,-97.95783 1.17055,-5.29584 -0.78687,-19.73275 -17.74761,-21.62368 -16.99708,-1.53066 -21.7952,12.22557 -21.7047,17.64847 -3.37441,13.17177 -32.33534,73.03552 -66.08514,86.51321 -33.74983,13.47768 -103.886966,25.97312 -105.037052,-49.75397 -1.150128,-75.72712 18.483489,-76.433 27.153162,-81.65562 8.62464,-5.22722 52.82492,-8.18913 52.82492,-8.18913 z m 70.12704,12.88925 90.43403,9.11213 c 0,0 -20.81763,12.00559 -25.77401,20.55949 -8.24961,-14.29748 -30.53142,-19.81814 -43.21758,-4.08161 -3.03332,-9.17697 -1.05844,-17.94033 -21.39742,-25.58547 z"
     id="path142"
     style="clip-rule:evenodd;fill:#000000;fill-rule:evenodd;stroke-width:0.045265;image-rendering:optimizeQuality;shape-rendering:geometricPrecision;text-rendering:geometricPrecision" />
</svg>
