<?xml version="1.0" encoding="UTF-8" standalone="no"?>
<svg
   width="500"
   height="500"
   version="1.1"
   id="svg698"
   sodipodi:docname="bobertParty.svg"
   inkscape:version="1.2.2 (b0a8486541, 2022-12-01)"
   inkscape:export-filename="../large/bobert.png"
   inkscape:export-xdpi="96"
   inkscape:export-ydpi="96"
   xmlns:inkscape="http://www.inkscape.org/namespaces/inkscape"
   xmlns:sodipodi="http://sodipodi.sourceforge.net/DTD/sodipodi-0.dtd"
   xmlns="http://www.w3.org/2000/svg"
   xmlns:svg="http://www.w3.org/2000/svg">
  <g
     id="g1131"
     inkscape:label="Bobert"
     transform="matrix(0.71635666,0,0,0.71635666,52.473308,117.62575)">
    <path
       style="fill:#fba101;stroke:none"
       d="m 254.75878,5.8213411 c -24.247,3.18359 -49.081,0.89581 -73,7.0540099 -46.15199,11.88211 -86.040193,52.92931 -111.644293,91.521609 -6.6409,10.01 -11.1317,21.38 -13.9815,33 -1.5733,6.416 -0.8402,14.344 -4.5216,20 -13.5767,20.858 -31.1129,40.959 -40.97992,64 -16.0770226,37.542 -12.1532096,91.435 9.19212,126 17.0901,27.674 41.9707,47.357 68.9352,64.692 43.665003,28.071 87.818993,47.152 139.999993,52.138 23.585,2.254 48.291,0.17 72,0.17 23.536,0 48.657,2.581 72,-0.286 35.111,-4.312 76.177,-19.261 104,-41.38 16.381,-13.023 29.253,-29.926 43.17,-45.334 30.015,-33.231 53.292,-69.102 57.66,-115 6.713,-70.535 -24.302,-140.813 -71.92,-191.999999 -16.12,-17.3288 -36.737,-26.4319 -57.91,-35.8611 -47.374,-21.09795 -99.449,-29.1388999 -151,-29.1388999 -13.761,0 -28.352,-1.367645 -42,0.42438 z"
       id="path14"
       inkscape:label="Head" />
    <path
       style="fill:#fef9c7;stroke:none"
       d="m 195,66.5178 c -16.159,3.4527 -36.436,16.1623 -39.522,33.4784 -1.823,10.2338 0.991,19.1458 2.409,29.0038 0.899,6.255 -3.563,11.362 -1.27,18 6.156,17.815 30.382,27.405 47.383,23.789 26.892,-5.718 42.549,-24.314 52.308,-48.789 4.573,-11.469 7.791,-27.1411 0.054,-38 C 247.185,71.1205 235.006,69.8699 221,66.8842 213.284,65.2396 202.75,64.8618 195,66.5178 m 192,4.9074 c -13.641,1.8568 -28.334,4.4826 -37.725,15.6142 -19.03,22.5556 -9.563,67.4016 11.818,84.9176 14.052,11.511 42.083,8.371 58.907,5.747 C 452.487,172.636 460.011,150.25 460,121 459.996,110.833 459.052,96.3155 452.606,88 437.305,68.2595 409.838,68.3165 387,71.4252"
       id="path16"
       sodipodi:nodetypes="cccccccccccccccc"
       inkscape:label="Whites" />
    <path
       style="fill:#010101;stroke:none"
       d="m 205,95.4252 c -7.953,1.0187 -17.357,2.0406 -21.991,9.5898 -9.512,15.497 0.993,40.759 20.991,38.785 8.392,-0.828 19.724,-6.733 22.991,-14.8 C 233.624,112.622 224.018,92.9892 205,95.4252 Z"
       id="path22"
       inkscape:label="Eye" />
    <path
       style="fill:#010101;stroke:none"
       d="m 400,102.465 c -32.762,5.894 -22.842,55.444 10,50.053 25.744,-4.226 19.427,-55.3479 -10,-50.053 z"
       id="path62"
       inkscape:label="Eye" />
    <path
       style="fill:#010101;stroke:none"
       d="m 112.01986,284.16075 c 3.19079,16.50355 1.19801,15.74988 13.34901,27.36388 C 132.44989,315.64524 132.962,316.512 144,318 c 0.51913,10.82219 -1.35937,14.76083 0,23 -2.653,12.365 -0.374,23.915 -2.325,36 -0.847,5.25 -4.246,15.682 -0.597,20.54 6.328,8.424 28.793,4.46 37.922,4.46 36.592,0 73.416,1.976 110,2 l 1,-53 -1,-18 v -1 c 11.319,2.101 10.96474,0.38661 22.31574,-0.11039 0.45867,-0.876 0.8551,1.11133 20.4541,-3.60967 6.963,-1.677 15.87677,-4.10787 21.71277,-8.90587 4.502,-3.702 2.80098,-0.67243 5.99698,-5.40743 4.142,-6.138 8.70467,-10.37878 9.10967,-18.17678 -12.492,8.839 -9.72965,21.31021 -26.05165,25.59821 -42.572,11.185 -43.05061,8.67893 -86.53761,5.70193 -31.857,-2.182 -64.909,-0.354 -96,-9.165 -6.637,-1.881 -14.645,-1.93 -20.91,-4.672 -18.41,-8.055 -20.05216,-8.42075 -25.07014,-29.09225 z"
       id="path300"
       sodipodi:nodetypes="ccccccsccccccccccccccc"
       inkscape:label="Mouth" />
    <path
       style="fill:#fef9c7;stroke:none"
       d="m 148,321 c 0,10.928 -2.438,21.262 -2.96,32 -0.363,7.469 1.975,14.753 1.695,22 -0.221,5.726 -6.364,15.875 -1.132,20.95 6.96,6.749 30.078,2.05 39.397,2.05 8.692,0 19.629,4.127 27,-1 -5.365,-14.001 -0.818,-34.89 -1.004,-50 -0.094,-7.635 -3.141,-12.389 2.004,-19 l -33,-2.054 z"
       id="path476"
       sodipodi:nodetypes="ccccscsccc"
       inkscape:label="Tooth" />
    <path
       style="fill:#fef9c7;stroke:none"
       d="m 215,331 0.004,48 -1.004,22 72,-1 c -1.956,-8.238 1.046,-15.838 1.823,-24 0.643,-6.758 -0.823,-14.135 -0.823,-21 0,-12.471 0.878,-20.693 -14,-21 -0.67,-4.484 -9.457,-3.102 -13,-2.588 C 245.063,333.579 229.939,331 215,331 Z"
       id="path552"
       sodipodi:nodetypes="cccccscsc"
       inkscape:label="Tooth" />
  </g>
  <defs
     id="defs702">
    <filter
       inkscape:collect="always"
       style="color-interpolation-filters:sRGB"
       id="filter48172"
       x="-0.27598726"
       y="-0.092295585"
       width="1.5519745"
       height="1.1845912">
      <feGaussianBlur
         inkscape:collect="always"
         stdDeviation="5.5269706"
         id="feGaussianBlur48174" />
    </filter>
  </defs>
  <sodipodi:namedview
     id="namedview700"
     pagecolor="#ffffff"
     bordercolor="#000000"
     borderopacity="0.25"
     inkscape:showpageshadow="2"
     inkscape:pageopacity="0.0"
     inkscape:pagecheckerboard="0"
     inkscape:deskcolor="#d1d1d1"
     showgrid="false"
     showguides="true"
     inkscape:zoom="1"
     inkscape:cx="300.49999"
     inkscape:cy="326.99999"
     inkscape:window-width="2560"
     inkscape:window-height="1367"
     inkscape:window-x="0"
     inkscape:window-y="0"
     inkscape:window-maximized="1"
     inkscape:current-layer="svg698" />
  <path
     style="fill:#393939;fill-opacity:0.0854701;stroke:none;stroke-width:1.161;stroke-linecap:round"
     d="m 239.37868,121.73654 c 5.5,17.5 28.5,31 74.5,42 46,11 111,16 111,16 0,0 -23.06525,-29.65313 -43.74812,-32.83511 -20.68288,-3.18198 -113.62135,-30.00046 -141.75188,-25.16489 z"
     id="path5004" />
  <g
     id="g6683"
     transform="translate(-7.1213203,-13.763456)"
     inkscape:label="Hat">
    <path
       style="fill:#c23b2c;fill-opacity:1;stroke:none;stroke-width:1.21053;stroke-linecap:round;stroke-opacity:1"
       d="m 249.05277,128.77623 c 52.73915,63.07827 178.89945,54.66783 178.89945,54.66783 L 380.38359,32.05623 Z"
       id="path414"
       sodipodi:nodetypes="cccc" />
    <path
       style="fill:#db5749;fill-opacity:1;stroke:none;stroke-width:1.161;stroke-linecap:round"
       d="m 251,131.5 c 51,60 173,52 173,52 l -46,-144 z"
       id="path50793"
       sodipodi:nodetypes="cccc" />
  </g>
  <path
     style="fill:#db8c00;fill-opacity:1;stroke:none;stroke-width:1.161;stroke-linecap:round"
     d="m 339.27897,301.47027 c -12.26113,11.43086 -9.74759,12.57416 -11.09845,21.0107 -1.35088,8.43653 -1.95314,19.60064 1.87687,29.5483 3.83002,9.94766 10.66832,20.16958 16.28372,21.92807 5.61539,1.7585 1.55059,-4.91773 -0.3144,-7.70552 -1.86499,-2.78781 -9.94016,-10.83714 -11.44379,-20.32338 -1.50362,-9.48627 -2.85991,-23.77913 1.53259,-30.48404 4.39249,-6.70493 10.97188,-17.58366 3.16346,-13.97413 z"
     id="path14295"
     sodipodi:nodetypes="cssssssc" />
  <path
     style="fill:#db8c00;fill-opacity:1;stroke:none;stroke-width:1.161;stroke-linecap:round"
     d="m 121.98974,273.35533 c 8.5494,14.41901 5.81572,14.80887 4.73817,23.28465 -1.07753,8.47578 -3.6409,19.3583 -10.11519,27.82639 -6.4743,8.46808 -15.91251,16.35289 -21.795828,16.4603 -5.88332,0.10742 -0.10422,-5.15534 2.469838,-7.30574 2.57406,-2.15041 12.58785,-7.60238 16.69992,-16.28228 4.11207,-8.67992 9.43521,-22.01369 7.10677,-29.68365 -2.32842,-7.66997 -5.58099,-19.96046 0.89632,-14.29967 z"
     id="path14295-3"
     sodipodi:nodetypes="cssssssc" />
  <g
     id="g37974"
     transform="rotate(16.572761,498.6805,-1444.8719)"
     inkscape:label="Blower">
    <path
       style="fill:#24844e;fill-opacity:1;stroke:none;stroke-width:1.161;stroke-linecap:round"
       d="m 736.75,385 -0.75,4.5 c 0,0 -124,49 -141.75,47.5 -17.75,-1.5 142.5,-52 142.5,-52 z"
       id="path28298" />
    <rect
       style="fill:#0eab53;fill-opacity:1;stroke:none;stroke-width:1.161;stroke-linecap:round"
       id="rect18875"
       width="147.88594"
       height="22.153824"
       x="415.49997"
       y="589.87372"
       transform="rotate(-19.789646)" />
    <path
       style="fill:#225f72;fill-opacity:1;stroke:none;stroke-width:1.161;stroke-linecap:round"
       d="M 624.68501,425.48548 626,429.875 c 0,0 -39.54724,12.62002 -45.35292,8.89407 -4.99003,-3.20249 21.94667,-5.69095 21.94667,-5.69095 z"
       id="path30764"
       sodipodi:nodetypes="ccscc" />
    <path
       style="fill:#20748f;fill-opacity:1;stroke:none;stroke-width:1.161;stroke-linecap:round"
       d="m 561.5,425.75 -13,-28 c 0,0 2.25,-10.5 15,-14.75 12.75,-4.25 24.5,-2.5 24.5,-2.5 l 20,26 z"
       id="path25485" />
    <path
       style="fill:#2a6f86;fill-opacity:1;stroke:none;stroke-width:1.161;stroke-linecap:round"
       d="M 602.09375,433.26562 624.75,425.5 l -6.75,-3 2.75,-5.75 -5.75,-0.5 1.5,-4.75 -3.75,0.25 0.75,-5.5 -15.5,6 z"
       id="path26918"
       sodipodi:nodetypes="cccccccccc" />
    <ellipse
       style="fill:#0e85ab;fill-opacity:1;stroke:none;stroke-width:1.161;stroke-linecap:round"
       id="path23973"
       cx="462.93619"
       cy="552.21381"
       rx="25.75"
       ry="20"
       transform="rotate(-14.472108)" />
    <ellipse
       style="fill:#225f72;fill-opacity:1;stroke:none;stroke-width:1.161;stroke-linecap:round"
       id="path26134"
       cx="416.49649"
       cy="590.98517"
       rx="15.375"
       ry="9.625"
       transform="rotate(-19.225892)" />
    <path
       style="fill:#67bc67;fill-opacity:1;stroke:none;stroke-width:1.161;stroke-linecap:round"
       d="m 620.13265,403.5812 19.09188,16.79378 12.72793,-4.48571 -19.26867,-16.72749 z"
       id="path31722"
       sodipodi:nodetypes="ccccc" />
    <path
       style="fill:#67bc67;fill-opacity:1;stroke:none;stroke-width:1.161;stroke-linecap:round"
       d="m 646.47238,394.21203 19.09188,16.79378 12.72793,-4.48571 -19.26867,-16.72749 z"
       id="path31722-7"
       sodipodi:nodetypes="ccccc" />
    <path
       style="fill:#67bc67;fill-opacity:1;stroke:none;stroke-width:1.161;stroke-linecap:round"
       d="m 673.51921,384.31254 19.09188,16.79378 12.72793,-4.48571 -19.26867,-16.72749 z"
       id="path31722-5"
       sodipodi:nodetypes="ccccc" />
    <path
       style="fill:#67bc67;fill-opacity:1;stroke:none;stroke-width:1.161;stroke-linecap:round"
       d="m 697.56083,375.65049 19.09188,16.79378 12.72793,-4.48571 -19.26867,-16.72749 z"
       id="path31722-3"
       sodipodi:nodetypes="ccccc" />
  </g>
  <path
     style="fill:#000000;fill-opacity:1;stroke:none;stroke-width:1.161;stroke-linecap:round"
     d="m 202.87868,351.48654 c 0,0 -0.125,3.875 0.5,10.875 0.625,7 -0.5,16.875 -0.5,16.875 l 2.375,3.25 c 0,0 1.25,-8.25 1.25,-9.125 0,-0.875 -0.625,-22.125 -0.625,-22.125 z"
     id="path38000" />
  <path
     style="fill:#e15723;fill-opacity:1;stroke:none;stroke-width:1.54665;stroke-linecap:round"
     d="m 69.279246,90.167133 -19.781771,47.099437 47.099461,3.76796 z"
     id="path39030" />
  <path
     style="fill:#fb72e7;fill-opacity:1;stroke:none;stroke-width:1.30781;stroke-linecap:round"
     d="m 382.42826,445.49974 -38.02432,-20.49514 -7.01762,39.33213 z"
     id="path39030-2" />
  <path
     style="fill:#89e694;fill-opacity:1;stroke:none;stroke-width:1.54665;stroke-linecap:round"
     d="m 72.78772,190.70784 c -0.941989,31.08565 18.839777,48.04145 18.839777,48.04145 l 25.433713,-12.24586 c 0,0 -9.61568,-14.46091 -10.94786,-22.12091 -1.33217,-7.65999 -2.3313,-22.14738 -2.3313,-22.14738 z"
     id="path39034" />
  <path
     style="fill:#dd3b2a;fill-opacity:1;stroke:none;stroke-width:1.68564;stroke-linecap:round"
     d="m 448.08026,444.59162 c 27.29661,-20.09335 28.53932,-48.46158 28.53932,-48.46158 L 449.0148,382.54855 c 0,0 -5.93823,17.9709 -11.61276,24.26398 -5.67451,6.29307 -17.42904,16.89107 -17.42904,16.89107 z"
     id="path39034-6" />
  <path
     style="fill:#d07ee0;fill-opacity:1;stroke:none;stroke-width:1.54665;stroke-linecap:round"
     d="M 189.12554,94.057601 C 168.80551,117.60121 142.76618,116.72318 142.76618,116.72318 L 132.30255,90.505871 c 0,0 16.86145,-4.15586 23.02134,-8.8999 6.1599,-4.744021 16.68976,-14.744261 16.68976,-14.744261 z"
     id="path39034-5" />
  <ellipse
     style="fill:#e3c00f;fill-opacity:1;stroke:none;stroke-width:1.54665;stroke-linecap:round"
     id="path46409"
     cx="223.49303"
     cy="-130.16682"
     rx="23.078732"
     ry="16.484808"
     transform="rotate(43.901312)" />
  <path
     style="fill:#d54738;fill-opacity:1;stroke:none;stroke-width:1.161;stroke-linecap:round"
     d="m 261.25,105.25 c 7.75,18.75 48.52063,30.09185 68.5,31 27.5,1.25 75,-5 75,-5 L 398.5,111.5 c 0,0 -43.96369,9.94088 -74,4.75 -31.67684,-5.4744 -46.25,-23.5 -46.25,-23.5 z"
     id="path47975"
     sodipodi:nodetypes="csccscc" />
  <path
     style="fill:#d54738;fill-opacity:1;stroke:none;stroke-width:1.161;stroke-linecap:round"
     d="m 392.75,95.5 -3.5,-14.25 c 0,0 -21.5,1.75 -34,-4 -12.5,-5.75 -29,-19.5 -29,-19.5 L 311,69 c 0,0 14.5,14.25 28,18.75 13.5,4.5 27.5,10.5 53.75,7.75 z"
     id="path48169" />
  <path
     style="fill:#d54738;fill-opacity:1;stroke:none;stroke-width:1.161;stroke-linecap:round"
     d="m 410.12193,150.43697 6.89429,19.44543 c 0,0 -49.49747,0 -61.87184,-2.47487 -12.37437,-2.47487 -20.5061,-3.71231 -20.5061,-3.71231 0,0 66.64482,0.70711 75.48365,-13.25825 z"
     id="path48230" />
  <path
     style="fill:#d54738;fill-opacity:1;stroke:none;stroke-width:1.161;stroke-linecap:round"
     d="m 349.31075,41.365747 21.2132,-15.202796 12.02082,36.239223 c 0,0 -22.45064,7.071067 -33.23402,-21.036427 z"
     id="path50773" />
  <path
     style="fill:#ffffff;fill-opacity:0.39601138;stroke:none;stroke-width:1.161;stroke-linecap:round;filter:url(#filter48172)"
     d="m 378,39.5 -37.39145,137.67792 c 0,0 2.52449,1.26569 23.20355,3.86034 20.67905,2.59464 24.85928,2.1534 24.85928,2.1534 z"
     id="path1854"
     sodipodi:nodetypes="cczcc"
     transform="translate(-7.1213203,-13.763456)" />
  <path
     style="fill:#d54738;fill-opacity:1;stroke:none;stroke-width:1.161;stroke-linecap:round"
     d="m 288.32279,85.559921 13.08148,-9.545942 c 0,0 3.91002,8.267983 10.25305,12.727922 11.31371,7.954952 20.85965,10.960155 20.85965,10.960155 0,0 -12.55115,9.369164 -44.19418,-14.142135 z"
     id="path49874"
     sodipodi:nodetypes="ccscc" />
</svg>
