<?xml version="1.0" encoding="UTF-8" standalone="no"?>
<svg
   width="500"
   height="500"
   version="1.1"
   id="svg698"
   sodipodi:docname="bobertGasp.svg"
   inkscape:version="1.2.2 (b0a8486541, 2022-12-01)"
   inkscape:export-filename="../large/bobertGasp.png"
   inkscape:export-xdpi="96"
   inkscape:export-ydpi="96"
   xmlns:inkscape="http://www.inkscape.org/namespaces/inkscape"
   xmlns:sodipodi="http://sodipodi.sourceforge.net/DTD/sodipodi-0.dtd"
   xmlns="http://www.w3.org/2000/svg"
   xmlns:svg="http://www.w3.org/2000/svg">
  <g
     id="g1131"
     inkscape:label="Bobert"
     transform="matrix(0.84228865,0,0,0.84228865,5.1206334,50.772428)">
    <path
       style="fill:#fba101;stroke:none"
       d="m 254.75878,5.8213411 c -24.247,3.18359 -49.081,0.89581 -73,7.0540099 -46.15199,11.88211 -86.040193,52.92931 -111.644293,91.521609 -6.6409,10.01 -11.1317,21.38 -13.9815,33 -1.5733,6.416 -0.8402,14.344 -4.5216,20 -13.5767,20.858 -31.1129,40.959 -40.97992,64 -16.0770226,37.542 -12.1532096,91.435 9.19212,126 17.0901,27.674 41.9707,47.357 68.9352,64.692 43.665003,28.071 87.818993,47.152 139.999993,52.138 23.585,2.254 48.291,0.17 72,0.17 23.536,0 48.657,2.581 72,-0.286 35.111,-4.312 76.177,-19.261 104,-41.38 16.381,-13.023 29.253,-29.926 43.17,-45.334 30.015,-33.231 53.292,-69.102 57.66,-115 6.713,-70.535 -24.302,-140.813 -71.92,-191.999999 -16.12,-17.3288 -36.737,-26.4319 -57.91,-35.8611 -47.374,-21.09795 -99.449,-29.1388999 -151,-29.1388999 -13.761,0 -28.352,-1.367645 -42,0.42438 z"
       id="path14"
       inkscape:label="Head" />
    <path
       style="fill:#ffffff;fill-opacity:1;stroke:#000000;stroke-width:0;stroke-dasharray:none;stroke-opacity:1"
       d="m 167.8753,56.759691 c -18.20474,3.889815 -41.04883,18.20846 -44.52552,37.716791 -2.05379,11.529418 1.11646,21.569678 2.71398,32.675698 1.01281,7.04689 -4.01408,12.80044 -1.43078,20.27882 6.93535,20.07039 34.22839,30.87449 53.38173,26.8007 30.29655,-6.4419 47.93574,-27.39217 58.93023,-54.96571 5.15195,-12.92099 8.77735,-30.577194 0.0608,-42.810839 C 226.66697,61.945097 212.94609,60.53617 197.16692,57.172478 188.47407,55.31967 176.60646,54.89404 167.8753,56.759691 m 198.04306,3.825176 c -15.36796,2.091872 -31.9211,5.0501 -42.50101,17.59097 -21.43921,25.411163 -10.77368,75.934683 13.31417,95.668223 15.83099,12.9683 47.41074,9.43078 66.36467,6.47458 36.59988,-5.70962 45.07642,-30.9297 45.06403,-63.88277 -0.005,-11.45414 -1.06802,-27.809572 -8.33009,-37.177821 C 422.59201,57.018387 391.64767,57.082603 365.91836,60.584867"
       id="path16"
       sodipodi:nodetypes="cccccccccccccccc"
       inkscape:label="Whites" />
    <path
       style="fill:#010101;stroke:none;stroke-width:1.1266"
       d="m 169.31248,85.655187 c -8.95985,1.147669 -19.55441,2.298942 -24.77508,10.803877 -10.71623,17.458926 1.11872,45.919106 23.64848,43.695196 9.45443,-0.93283 22.22107,-7.5854 25.90168,-16.67369 7.47274,-18.45146 -3.34938,-40.569782 -24.77508,-37.825383 z"
       id="path22"
       inkscape:label="Eye" />
    <path
       style="fill:#010101;stroke:none;stroke-width:1.1266"
       d="m 361.28321,91.310381 c -36.90969,6.640184 -25.73381,62.463249 11.26601,56.389749 29.00321,-4.76102 21.88647,-62.354988 -11.26601,-56.389749 z"
       id="path62"
       inkscape:label="Eye" />
    <path
       style="fill:#ab5858;fill-opacity:1;stroke:#000000;stroke-width:5.89741;stroke-linecap:square;stroke-dasharray:none;stroke-opacity:1"
       d="m 168.85663,206.55534 c 13.47423,-11.29739 29.52731,-21.27224 44.76878,-20.95223 15.24147,0.32001 26.50332,1.67414 50.76001,4.87924 24.25669,3.2051 77.89434,1.47936 89.79556,11.69801 11.90122,10.21865 17.1528,18.52749 23.47192,32.64099 6.31911,14.11351 6.2797,20.78109 8.36935,31.13204 2.08965,10.35095 5.03181,23.28178 4.19255,28.32124 -0.83926,5.03945 4.66731,14.34248 3.24968,19.59444 -4.02878,11.96395 -3.75313,26.01686 -4.5267,36.65677 -0.60616,7.82403 -6.68742,29.16437 -8.58475,34.69623 -1.89732,5.53187 -1.08641,14.69265 -5.42079,22.94489 -4.33439,8.25224 -10.95163,11.34626 -13.95786,15.05713 -3.00623,3.71088 -1.57347,4.38912 -3.97055,7.07358 -2.39709,2.68447 -5.3862,6.4099 -10.20745,8.80411 -4.82125,2.39421 -15.2387,4.45485 -18.28644,5.34581 -3.04774,0.89097 -21.73959,11.69356 -41.71568,12.57891 -19.9761,0.88534 -39.22092,1.72982 -53.0003,-1.04715 -13.77939,-2.77697 -28.73723,-14.9442 -29.61267,-16.1753 -0.87545,-1.23156 -3.17977,-5.5815 -5.25268,-7.38938 -2.07292,-1.80789 -2.93112,-0.12836 -6.83352,-3.15151 -3.9024,-3.02314 -13.6872,-12.38856 -16.42464,-14.86628 -2.73744,-2.47773 -20.79805,-20.2775 -22.86024,-34.80341 -2.06218,-14.5259 -9.44147,-69.62641 -11.50365,-84.15232 -2.06219,-14.52589 -0.77676,-36.84613 4.54416,-46.22223 5.32091,-9.37611 9.53168,-31.36619 23.00591,-42.66358 z"
       id="path460"
       sodipodi:nodetypes="zzzzzzzcczzzzzzzzzzzzzzzz" />
    <path
       style="fill:#010101;stroke:none"
       d="m 196.85257,188.78967 c 0.51913,10.82219 -2.21578,9.9723 -0.85641,18.21147 -2.653,12.365 -0.374,23.915 -2.325,36 -0.847,5.25 -4.246,15.682 -0.597,20.54 6.328,8.424 28.793,4.46 37.922,4.46 36.592,0 73.416,1.976 110,2 l 1,-53 -1,-18 v -1 c -7.12798,0.43564 -6.58039,-2.63633 -33,-4.91 -31.857,-2.182 -64.909,-0.354 -96,-9.165 -20.91416,0.22487 -9.00553,9.28725 -15.14359,4.86353 z"
       id="path300"
       sodipodi:nodetypes="ccccsccccccc"
       inkscape:label="Mouth" />
    <path
       style="fill:#fef9c7;stroke:none"
       d="m 201.62188,186.98397 c 0,10.928 -4.06372,21.27917 -4.58572,32.01717 -0.363,7.469 1.975,14.753 1.695,22 -0.221,5.726 -6.364,15.875 -1.132,20.95 6.96,6.749 30.078,2.05 39.397,2.05 8.692,0 19.629,4.127 27,-1 -5.365,-14.001 -0.818,-34.89 -1.004,-50 -0.094,-7.635 -3.141,-12.389 2.004,-19 l -33,-2.054 z"
       id="path476"
       sodipodi:nodetypes="ccccscsccc"
       inkscape:label="Tooth" />
    <path
       style="fill:#fef9c7;stroke:none"
       d="m 266.99616,197.00114 0.004,48 -1.004,22 72,-1 c -1.956,-8.238 1.046,-15.838 1.823,-24 0.643,-6.758 -0.823,-14.135 -0.823,-21 0,-12.471 0.878,-20.693 -14,-21 -0.67,-4.484 -9.457,-3.102 -13,-2.588 -14.937,2.167 -30.061,-0.412 -45,-0.412 z"
       id="path552"
       sodipodi:nodetypes="cccccscsc"
       inkscape:label="Tooth" />
    <path
       style="fill:#ff9191;fill-opacity:1;stroke:#000000;stroke-width:2.90416;stroke-linecap:square;stroke-dasharray:none;stroke-opacity:1"
       d="m 205.59617,441.66734 c 3.76177,-6.40577 4.27341,-19.81005 10.07288,-23.81494 17.51313,-12.09384 35.76196,-8.32892 54.79444,-5.23159 3.15684,0.51375 24.36035,2.14239 25.07535,2.91951 5.0598,5.49947 16.99959,10.9968 21.38014,16.72624 3.08689,4.03747 7.10077,8.40545 10.72646,11.44783 0,0 -19.85519,14.64624 -60.75007,15.83513 -40.89487,1.18889 -61.2992,-17.88218 -61.2992,-17.88218 z"
       id="path7156"
       sodipodi:nodetypes="cssssczc" />
    <path
       style="fill:none;fill-opacity:1;stroke:#da8b00;stroke-width:9.49793162;stroke-linecap:round;stroke-dasharray:none;stroke-opacity:1"
       d="m 208.50795,40.974613 c -9.01699,-3.9876 -17.08166,3.18912 -25.23337,3.18912 -3.23806,0 -6.52245,-3.1117 -10.55942,-1.76605 -7.36846,2.45616 -15.35282,4.51503 -22.72479,7.7799 -3.15228,1.39607 -6.21937,5.33348 -8.90431,7.12345 -5.90838,3.93891 -10.92814,7.33538 -16.56396,11.05115 -3.43021,2.26158 -4.72547,6.52788 -7.45997,9.26239"
       id="path8148" />
    <path
       style="fill:none;fill-opacity:1;stroke:#da8b00;stroke-width:9.49793162;stroke-linecap:round;stroke-dasharray:none;stroke-opacity:1"
       d="m 463.68712,103.55469 c -1.87258,-4.049424 0.70969,-8.477174 0,-12.625354 -0.79546,-4.64961 -19.12688,-28.08376 -22.61186,-33.31125 -1.52728,-2.29091 -19.11603,-3.73451 -23.25106,-4.76827 -5.16657,-1.29164 -9.55649,-5.93654 -18.24072,-5.93654"
       id="path8568" />
  </g>
  <defs
     id="defs702" />
  <sodipodi:namedview
     id="namedview700"
     pagecolor="#ffffff"
     bordercolor="#000000"
     borderopacity="0.25"
     inkscape:showpageshadow="2"
     inkscape:pageopacity="0.0"
     inkscape:pagecheckerboard="0"
     inkscape:deskcolor="#d1d1d1"
     showgrid="false"
     showguides="true"
     inkscape:zoom="1.4142136"
     inkscape:cx="138.23937"
     inkscape:cy="256.67975"
     inkscape:window-width="2560"
     inkscape:window-height="1367"
     inkscape:window-x="0"
     inkscape:window-y="0"
     inkscape:window-maximized="1"
     inkscape:current-layer="g1131" />
</svg>
