<?xml version="1.0" encoding="UTF-8" standalone="no"?>
<svg
   width="500"
   height="500"
   version="1.1"
   id="svg698"
   sodipodi:docname="bobert.svg"
   inkscape:export-filename="../github/bobertism/boberts/large/bobornge.png"
   inkscape:export-xdpi="96"
   inkscape:export-ydpi="96"
   inkscape:version="1.2.2 (b0a8486541, 2022-12-01)"
   xmlns:inkscape="http://www.inkscape.org/namespaces/inkscape"
   xmlns:sodipodi="http://sodipodi.sourceforge.net/DTD/sodipodi-0.dtd"
   xmlns="http://www.w3.org/2000/svg"
   xmlns:svg="http://www.w3.org/2000/svg">
  <defs
     id="defs702" />
  <sodipodi:namedview
     id="namedview700"
     pagecolor="#ffffff"
     bordercolor="#000000"
     borderopacity="0.25"
     inkscape:showpageshadow="2"
     inkscape:pageopacity="0.0"
     inkscape:pagecheckerboard="0"
     inkscape:deskcolor="#d1d1d1"
     showgrid="false"
     inkscape:zoom="1.5684636"
     inkscape:cx="145.68397"
     inkscape:cy="298.38117"
     inkscape:window-width="2560"
     inkscape:window-height="1367"
     inkscape:window-x="0"
     inkscape:window-y="0"
     inkscape:window-maximized="1"
     inkscape:current-layer="svg698" />
  <path
     style="fill:#fef9c7;stroke:none;stroke-width:0.747288"
     d="m 238.02755,108.7684 v 0.74728 h 2.98917 z"
     id="path4" />
  <path
     style="fill:#010101;stroke:none;stroke-width:0.747288"
     d="m 241.01672,108.7684 v 0.74728 h 18.6822 z"
     id="path6" />
  <path
     style="fill:#fef9c7;stroke:none;stroke-width:0.747288"
     d="m 259.69892,108.7684 v 0.74728 h 2.98915 z"
     id="path8" />
  <path
     style="fill:#fef9c7;stroke:none;stroke-width:0.747288"
     d="m 217.85077,109.51568 v 0.74729 h 5.97832 z"
     id="path12" />
  <path
     style="fill:#fba101;stroke:none;stroke-width:0.793863"
     d="m 222.46228,88.052587 c -18.1195,2.68484 -36.67765,0.755464 -54.55203,5.948931 C 98.128016,123.63592 85.558638,148.96602 57.113933,215.86902 45.099765,247.52971 30.946876,346.96705 46.897987,376.11711 c 12.771226,23.33861 31.364206,39.93808 51.514456,54.55739 87.033907,57.52352 210.563607,78.10559 289.947807,8.97479 34.95128,-36.20163 70.76457,-88.79856 75.34907,-135.21615 C 461.09978,218.64759 430.81841,144.53365 366.68889,112.26866 331.28687,94.475902 292.37184,87.694645 253.84838,87.694645 c -10.28344,0 -21.18711,-1.153384 -31.3861,0.357906 z"
     id="path14"
     sodipodi:nodetypes="ccccccccscc" />
  <path
     style="fill:#fef9c7;stroke:none;stroke-width:0.747288"
     d="m 180.48637,158.47636 c -12.07543,2.58017 -27.22819,12.0779 -29.53432,25.01801 -1.36231,7.6476 0.74056,14.30743 1.80021,21.6742 0.67181,4.67429 -2.66259,8.49069 -0.94905,13.45119 4.6003,13.31293 22.7041,20.47943 35.40875,17.77724 20.09608,-4.27299 31.79636,-18.16957 39.08915,-36.45945 3.41735,-8.57064 5.82212,-20.28222 0.0403,-28.39694 -6.85786,-9.6247 -15.95909,-10.55927 -26.4256,-12.79045 -5.76608,-1.22898 -13.63801,-1.51131 -19.4295,-0.2738 m 143.47933,3.66724 c -10.19376,1.38757 -21.17366,3.34979 -28.19144,11.66831 -14.2209,16.85553 -7.14631,50.36842 8.83145,63.45792 10.50089,8.60204 31.44813,6.25555 44.02051,4.29467 24.27714,-3.78726 29.89974,-20.51606 29.89152,-42.37423 -0.003,-7.59768 -0.70843,-18.44644 -5.52545,-24.66051 -11.4342,-14.75184 -31.95997,-14.70926 -49.02654,-12.38616"
     id="path16"
     sodipodi:nodetypes="cccccscccccccccc" />
  <path
     style="fill:#fba101;stroke:none;stroke-width:0.747288"
     d="m 185.71739,179.76077 0.74729,0.74729 z"
     id="path18" />
  <path
     style="fill:#736034;stroke:none;stroke-width:0.747288"
     d="m 186.96311,180.00985 0.4977,0.24914 z"
     id="path20" />
  <path
     style="fill:#010101;stroke:none;stroke-width:0.747288"
     d="m 187.95926,180.07852 c -5.94319,0.76126 -12.97069,1.52491 -16.43362,7.16634 -7.10821,11.58073 0.74205,30.45872 15.68632,28.98358 6.27124,-0.61876 14.73952,-5.0315 17.18091,-11.05987 4.95676,-12.23908 -2.2217,-26.91045 -16.43361,-25.09005 z"
     id="path22" />
  <path
     style="fill:#736034;stroke:none;stroke-width:0.747288"
     d="m 193.68871,180.00985 0.49769,0.24914 z"
     id="path24" />
  <path
     style="fill:#fba101;stroke:none;stroke-width:0.747288"
     d="m 194.68484,179.76077 0.7473,0.74729 z"
     id="path26" />
  <path
     style="fill:#a56c05;stroke:none;stroke-width:0.747288"
     d="m 180.48637,180.50806 0.74729,0.74729 z"
     id="path28" />
  <path
     style="fill:#736034;stroke:none;stroke-width:0.747288"
     d="m 181.23366,180.50806 0.74728,0.74729 -0.74728,-0.74729 m 14.94576,0 0.74729,0.74729 z"
     id="path30" />
  <path
     style="fill:#fef9c7;stroke:none;stroke-width:0.747288"
     d="m 429.33333,180.50806 0.74728,0.74729 z"
     id="path32" />
  <path
     style="fill:#a56c05;stroke:none;stroke-width:0.747288"
     d="m 178.24451,181.25535 0.74728,0.74729 z"
     id="path34" />
  <path
     style="fill:#736034;stroke:none;stroke-width:0.747288"
     d="m 178.99179,181.25535 0.74729,0.74729 -0.74729,-0.74729 m 18.6822,0 0.7473,0.74729 z"
     id="path36" />
  <path
     style="fill:#fba101;stroke:none;stroke-width:0.747288"
     d="m 198.42129,181.25535 0.74728,0.74729 z"
     id="path38" />
  <path
     style="fill:#fef9c7;stroke:none;stroke-width:0.747288"
     d="m 430.08061,181.25535 0.7473,0.74729 -0.7473,-0.74729 m -343.752544,0.74729 0.747283,0.74728 z"
     id="path40" />
  <path
     style="fill:#736034;stroke:none;stroke-width:0.747288"
     d="m 176.74993,182.00264 0.74728,0.74728 -0.74728,-0.74728 m 22.41864,0 0.74729,0.74728 z"
     id="path42" />
  <path
     style="fill:#fef9c7;stroke:none;stroke-width:0.747288"
     d="m 85.580773,182.74992 0.747293,0.74729 z"
     id="path44" />
  <path
     style="fill:#736034;stroke:none;stroke-width:0.747288"
     d="m 175.25536,182.74992 0.74728,0.74729 z"
     id="path46" />
  <path
     style="fill:#fef9c7;stroke:none;stroke-width:0.747288"
     d="m 430.82791,182.74992 0.74728,0.74729 z"
     id="path48" />
  <path
     style="fill:#fba101;stroke:none;stroke-width:0.747288"
     d="m 201.41044,183.49721 0.74728,0.74729 z"
     id="path50" />
  <path
     style="fill:#fef9c7;stroke:none;stroke-width:0.747288"
     d="m 431.57519,183.49721 0.74729,0.74729 -0.74729,-0.74729 m -346.7417,0.74729 0.747283,0.74729 z"
     id="path52" />
  <path
     style="fill:#fba101;stroke:none;stroke-width:0.747288"
     d="m 173.01349,184.2445 0.74729,0.74729 z"
     id="path54" />
  <path
     style="fill:#fef9c7;stroke:none;stroke-width:0.747288"
     d="m 84.086197,184.99179 0.747293,0.74728 z"
     id="path56" />
  <path
     style="fill:#fba101;stroke:none;stroke-width:0.747288"
     d="m 331.43858,184.99179 0.74729,0.74728 z"
     id="path58" />
  <path
     style="fill:#736034;stroke:none;stroke-width:0.747288"
     d="m 332.68431,185.24063 0.49769,0.2496 z"
     id="path60" />
  <path
     style="fill:#010101;stroke:none;stroke-width:0.747288"
     d="m 333.68044,185.33928 c -24.48266,4.40451 -17.06956,41.43264 7.47288,37.40401 19.23819,-3.15804 14.51757,-41.36083 -7.47288,-37.40401 z"
     id="path62" />
  <path
     style="fill:#736034;stroke:none;stroke-width:0.747288"
     d="m 340.90448,185.24063 0.49769,0.2496 z"
     id="path64" />
  <path
     style="fill:#fba101;stroke:none;stroke-width:0.747288"
     d="m 341.90062,184.99179 0.74728,0.74728 z"
     id="path66" />
  <path
     style="fill:#fef9c7;stroke:none;stroke-width:0.747288"
     d="m 432.32248,184.99179 0.74729,0.74728 z"
     id="path68" />
  <path
     style="fill:#fba101;stroke:none;stroke-width:0.747288"
     d="m 329.19672,185.73907 0.74729,0.7473 z"
     id="path70" />
  <path
     style="fill:#736034;stroke:none;stroke-width:0.747288"
     d="m 329.94401,185.73907 0.74728,0.7473 -0.74728,-0.7473 m 13.45118,0 0.74728,0.7473 z"
     id="path72" />
  <path
     style="fill:#fef9c7;stroke:none;stroke-width:0.747288"
     d="m 83.338914,186.48637 0.747283,0.74728 z"
     id="path74" />
  <path
     style="fill:#a56c05;stroke:none;stroke-width:0.747288"
     d="m 203.6523,186.48637 0.74729,0.74728 z"
     id="path76" />
  <path
     style="fill:#736034;stroke:none;stroke-width:0.747288"
     d="m 327.70214,186.48637 0.74728,0.74728 -0.74728,-0.74728 m 17.18763,0 0.74728,0.74728 z"
     id="path78" />
  <path
     style="fill:#a56c05;stroke:none;stroke-width:0.747288"
     d="m 170.77163,187.23365 0.74728,0.74729 z"
     id="path80" />
  <path
     style="fill:#736034;stroke:none;stroke-width:0.747288"
     d="m 326.20756,187.23365 0.74729,0.74729 z"
     id="path82" />
  <path
     style="fill:#fba101;stroke:none;stroke-width:0.747288"
     d="m 346.38434,187.23365 0.7473,0.74729 z"
     id="path84" />
  <path
     style="fill:#fef9c7;stroke:none;stroke-width:0.747288"
     d="m 433.81706,187.23365 0.74728,0.74729 -0.74728,-0.74729 m -351.225439,0.74729 0.747293,0.74728 z"
     id="path86" />
  <path
     style="fill:#a56c05;stroke:none;stroke-width:0.747288"
     d="m 204.39959,187.98094 0.74729,0.74728 -0.74729,-0.74728 m 142.73205,0 0.74728,0.74728 -0.74728,-0.74728 m -177.1073,0.74728 0.74729,0.7473 -0.74729,-0.7473 m 153.94135,0 0.7473,0.7473 z"
     id="path88" />
  <path
     style="fill:#736034;stroke:none;stroke-width:0.747288"
     d="m 347.87892,188.72822 0.74729,0.7473 z"
     id="path90" />
  <path
     style="fill:#fef9c7;stroke:none;stroke-width:0.747288"
     d="m 434.56434,188.72822 0.7473,0.7473 -0.7473,-0.7473 m -352.720001,0.7473 0.747282,0.74729 z"
     id="path92" />
  <path
     style="fill:#a56c05;stroke:none;stroke-width:0.747288"
     d="m 323.21841,189.47552 0.74728,0.74729 -0.74728,-0.74729 m 25.4078,0 0.74728,0.74729 -0.74728,-0.74729 m -26.15509,0.74729 0.74729,0.74728 z"
     id="path94" />
  <path
     style="fill:#fef9c7;stroke:none;stroke-width:0.747288"
     d="m 435.31164,190.22281 0.74728,0.74728 -0.74728,-0.74728 m -354.214595,0.74728 0.747294,0.7473 z"
     id="path96" />
  <path
     style="fill:#fba101;stroke:none;stroke-width:0.747288"
     d="m 169.27705,190.97009 0.74729,0.7473 z"
     id="path98" />
  <path
     style="fill:#a56c05;stroke:none;stroke-width:0.747288"
     d="m 205.14688,190.97009 0.74729,0.7473 -0.74729,-0.7473 m 116.57696,0 0.74728,0.7473 z"
     id="path100" />
  <path
     style="fill:#736034;stroke:none;stroke-width:0.747288"
     d="m 349.37349,190.97009 0.7473,0.7473 z"
     id="path102" />
  <path
     style="fill:#fef9c7;stroke:none;stroke-width:0.747288"
     d="m 436.05892,190.97009 0.74729,0.7473 z"
     id="path104" />
  <path
     style="fill:#a56c05;stroke:none;stroke-width:0.747288"
     d="m 169.27705,191.71739 0.74729,0.74728 z"
     id="path106" />
  <path
     style="fill:#736034;stroke:none;stroke-width:0.747288"
     d="m 205.14688,191.71739 v 2.98915 h 0.74729 z"
     id="path108" />
  <path
     style="fill:#fba101;stroke:none;stroke-width:0.747288"
     d="m 320.97654,191.71739 0.7473,0.74728 z"
     id="path110" />
  <path
     style="fill:#a56c05;stroke:none;stroke-width:0.747288"
     d="m 350.12079,191.71739 0.74728,0.74728 z"
     id="path112" />
  <path
     style="fill:#fef9c7;stroke:none;stroke-width:0.747288"
     d="m 80.349752,192.46467 0.747293,0.74729 z"
     id="path114" />
  <path
     style="fill:#736034;stroke:none;stroke-width:0.747288"
     d="m 169.27705,192.46467 v 2.24187 h 0.74729 z"
     id="path116" />
  <path
     style="fill:#fef9c7;stroke:none;stroke-width:0.747288"
     d="m 436.80621,192.46467 0.74729,0.74729 z"
     id="path118" />
  <path
     style="fill:#736034;stroke:none;stroke-width:0.747288"
     d="m 320.22926,193.21196 0.74728,0.74729 z"
     id="path120" />
  <path
     style="fill:#a56c05;stroke:none;stroke-width:0.747288"
     d="m 350.86807,193.21196 0.74729,0.74729 z"
     id="path122" />
  <path
     style="fill:#fef9c7;stroke:none;stroke-width:0.747288"
     d="m 79.602469,193.95925 0.747283,0.74729 z"
     id="path124" />
  <path
     style="fill:#fba101;stroke:none;stroke-width:0.747288"
     d="m 319.48197,193.95925 0.74729,0.74729 z"
     id="path126" />
  <path
     style="fill:#fef9c7;stroke:none;stroke-width:0.747288"
     d="m 437.5535,193.95925 0.74729,0.74729 z"
     id="path128" />
  <path
     style="fill:#a56c05;stroke:none;stroke-width:0.747288"
     d="m 205.14688,194.70654 0.74729,0.74728 -0.74729,-0.74728 m 146.46848,0 0.74729,0.74728 z"
     id="path130" />
  <path
     style="fill:#fef9c7;stroke:none;stroke-width:0.747288"
     d="m 78.855176,195.45382 0.747293,0.74729 z"
     id="path132" />
  <path
     style="fill:#fba101;stroke:none;stroke-width:0.747288"
     d="m 168.77861,195.95226 0.24959,0.4977 z"
     id="path134" />
  <path
     style="fill:#736034;stroke:none;stroke-width:0.747288"
     d="m 205.14688,195.45382 v 2.24187 h 0.74729 z"
     id="path136" />
  <path
     style="fill:#fba101;stroke:none;stroke-width:0.747288"
     d="m 318.73468,195.45382 0.74729,0.74729 z"
     id="path138" />
  <path
     style="fill:#fef9c7;stroke:none;stroke-width:0.747288"
     d="m 438.30079,195.45382 0.74729,0.74729 z"
     id="path140" />
  <path
     style="fill:#736034;stroke:none;stroke-width:0.747288"
     d="m 318.73468,196.20111 0.74729,0.74729 z"
     id="path142" />
  <path
     style="fill:#a56c05;stroke:none;stroke-width:0.747288"
     d="m 168.52976,196.9484 0.74729,0.74729 z"
     id="path144" />
  <path
     style="fill:#fba101;stroke:none;stroke-width:0.747288"
     d="m 352.36265,196.9484 0.74729,0.74729 z"
     id="path146" />
  <path
     style="fill:#fef9c7;stroke:none;stroke-width:0.747288"
     d="m 439.04808,196.9484 0.74728,0.74729 -0.74728,-0.74729 m -360.940187,0.74729 0.747283,0.74728 z"
     id="path148" />
  <path
     style="fill:#736034;stroke:none;stroke-width:0.747288"
     d="m 168.52976,197.69569 0.74729,0.74728 z"
     id="path150" />
  <path
     style="fill:#a56c05;stroke:none;stroke-width:0.747288"
     d="m 205.14688,197.69569 0.74729,0.74728 z"
     id="path152" />
  <path
     style="fill:#fba101;stroke:none;stroke-width:0.747288"
     d="m 317.98739,197.69569 0.74729,0.74728 z"
     id="path154" />
  <path
     style="fill:#a56c05;stroke:none;stroke-width:0.747288"
     d="m 352.36265,197.69569 0.74729,0.74728 -0.74729,-0.74728 m -183.83289,0.74728 0.74729,0.7473 z"
     id="path156" />
  <path
     style="fill:#736034;stroke:none;stroke-width:0.747288"
     d="m 205.14688,198.44297 v 2.98915 h 0.74729 z"
     id="path158" />
  <path
     style="fill:#a56c05;stroke:none;stroke-width:0.747288"
     d="m 317.98739,198.44297 0.74729,0.7473 z"
     id="path160" />
  <path
     style="fill:#736034;stroke:none;stroke-width:0.747288"
     d="m 352.36265,198.44297 v 2.98915 h 0.74729 z"
     id="path162" />
  <path
     style="fill:#fef9c7;stroke:none;stroke-width:0.747288"
     d="m 439.79536,198.44297 0.7473,0.7473 -0.7473,-0.7473 m -362.185683,1.24574 0.24914,0.49769 z"
     id="path164" />
  <path
     style="fill:#736034;stroke:none;stroke-width:0.747288"
     d="m 168.52976,199.19027 v 2.98915 h 0.74729 l -0.74729,-2.98915 m 149.45763,0 v 2.98915 h 0.74729 z"
     id="path166" />
  <path
     style="fill:#fef9c7;stroke:none;stroke-width:0.747288"
     d="m 440.54266,199.93755 0.74728,0.74729 -0.74728,-0.74729 m 0.74728,0.74729 0.74729,0.74728 -0.74729,-0.74728 m -364.676622,0.74728 0.747282,0.7473 z"
     id="path168" />
  <path
     style="fill:#a56c05;stroke:none;stroke-width:0.747288"
     d="m 205.14688,201.43212 0.74729,0.7473 -0.74729,-0.7473 m 147.21577,0 0.74729,0.7473 -0.74729,-0.7473 m -183.83289,0.7473 0.74729,0.74728 z"
     id="path170" />
  <path
     style="fill:#fba101;stroke:none;stroke-width:0.747288"
     d="m 205.14688,202.17942 0.74729,0.74728 z"
     id="path172" />
  <path
     style="fill:#a56c05;stroke:none;stroke-width:0.747288"
     d="m 317.98739,202.17942 0.74729,0.74728 z"
     id="path174" />
  <path
     style="fill:#736034;stroke:none;stroke-width:0.747288"
     d="m 352.36265,202.17942 v 8.22017 h 0.74729 z"
     id="path176" />
  <path
     style="fill:#fef9c7;stroke:none;stroke-width:0.747288"
     d="m 442.03723,202.17942 0.74728,0.74728 z"
     id="path178" />
  <path
     style="fill:#fba101;stroke:none;stroke-width:0.747288"
     d="m 168.52976,202.9267 0.74729,0.74729 z"
     id="path180" />
  <path
     style="fill:#736034;stroke:none;stroke-width:0.747288"
     d="m 317.98739,202.9267 v 3.73645 h 0.74729 z"
     id="path182" />
  <path
     style="fill:#fef9c7;stroke:none;stroke-width:0.747288"
     d="m 76.115101,204.17244 0.24914,0.49769 -0.24914,-0.49769 m 366.669409,-0.49845 0.7473,0.74729 z"
     id="path184" />
  <path
     style="fill:#a56c05;stroke:none;stroke-width:0.747288"
     d="m 204.39959,204.42128 0.74729,0.74729 -0.74729,-0.74729 m -35.12254,0.74729 0.74729,0.74728 z"
     id="path186" />
  <path
     style="fill:#fef9c7;stroke:none;stroke-width:0.747288"
     d="m 443.53181,205.16857 0.74728,0.74728 z"
     id="path188" />
  <path
     style="fill:#a56c05;stroke:none;stroke-width:0.747288"
     d="m 203.6523,205.91585 0.74729,0.7473 z"
     id="path190" />
  <path
     style="fill:#fef9c7;stroke:none;stroke-width:0.747288"
     d="m 75.367807,207.16159 0.249152,0.49769 z"
     id="path192" />
  <path
     style="fill:#a56c05;stroke:none;stroke-width:0.747288"
     d="m 170.02434,206.66315 0.74729,0.74729 -0.74729,-0.74729 m 147.96305,0 0.74729,0.74729 z"
     id="path194" />
  <path
     style="fill:#fef9c7;stroke:none;stroke-width:0.747288"
     d="m 444.27909,206.66315 0.74729,0.74729 z"
     id="path196" />
  <path
     style="fill:#fba101;stroke:none;stroke-width:0.747288"
     d="m 317.98739,207.41044 0.74729,0.74728 z"
     id="path198" />
  <path
     style="fill:#fef9c7;stroke:none;stroke-width:0.747288"
     d="m 445.02638,208.15772 0.74729,0.7473 z"
     id="path200" />
  <path
     style="fill:#a56c05;stroke:none;stroke-width:0.747288"
     d="m 201.41044,208.90502 0.74728,0.74728 z"
     id="path202" />
  <path
     style="fill:#736034;stroke:none;stroke-width:0.747288"
     d="m 318.73468,208.90502 0.74729,0.74728 z"
     id="path204" />
  <path
     style="fill:#fba101;stroke:none;stroke-width:0.747288"
     d="m 172.2662,209.6523 0.74729,0.74729 z"
     id="path206" />
  <path
     style="fill:#736034;stroke:none;stroke-width:0.747288"
     d="m 200.66315,209.6523 0.74729,0.74729 z"
     id="path208" />
  <path
     style="fill:#a56c05;stroke:none;stroke-width:0.747288"
     d="m 318.73468,209.6523 0.74729,0.74729 z"
     id="path210" />
  <path
     style="fill:#fef9c7;stroke:none;stroke-width:0.747288"
     d="m 445.77367,209.6523 0.74729,0.74729 -0.74729,-0.74729 m -371.402222,0.74729 0.747294,0.74728 z"
     id="path212" />
  <path
     style="fill:#a56c05;stroke:none;stroke-width:0.747288"
     d="m 199.91586,210.39959 0.74729,0.74728 z"
     id="path214" />
  <path
     style="fill:#fba101;stroke:none;stroke-width:0.747288"
     d="m 318.73468,210.39959 0.74729,0.74728 z"
     id="path216" />
  <path
     style="fill:#a56c05;stroke:none;stroke-width:0.747288"
     d="m 352.36265,210.39959 0.74729,0.74728 z"
     id="path218" />
  <path
     style="fill:#736034;stroke:none;stroke-width:0.747288"
     d="m 174.50806,211.14687 0.7473,0.7473 z"
     id="path220" />
  <path
     style="fill:#fba101;stroke:none;stroke-width:0.747288"
     d="m 199.16857,211.14687 0.74729,0.7473 z"
     id="path222" />
  <path
     style="fill:#fef9c7;stroke:none;stroke-width:0.747288"
     d="m 446.52096,211.14687 0.74728,0.7473 z"
     id="path224" />
  <path
     style="fill:#736034;stroke:none;stroke-width:0.747288"
     d="m 176.00264,211.89417 0.74729,0.74728 -0.74729,-0.74728 m 21.67135,0 0.7473,0.74728 z"
     id="path226" />
  <path
     style="fill:#a56c05;stroke:none;stroke-width:0.747288"
     d="m 176.74993,212.64145 0.74728,0.74729 z"
     id="path228" />
  <path
     style="fill:#736034;stroke:none;stroke-width:0.747288"
     d="m 196.17942,212.64145 0.74729,0.74729 z"
     id="path230" />
  <path
     style="fill:#a56c05;stroke:none;stroke-width:0.747288"
     d="m 319.48197,212.64145 0.74729,0.74729 z"
     id="path232" />
  <path
     style="fill:#736034;stroke:none;stroke-width:0.747288"
     d="m 351.61536,212.64145 0.74729,0.74729 z"
     id="path234" />
  <path
     style="fill:#fef9c7;stroke:none;stroke-width:0.747288"
     d="m 447.26824,212.64145 0.7473,0.74729 z"
     id="path236" />
  <path
     style="fill:#736034;stroke:none;stroke-width:0.747288"
     d="m 193.93756,213.38874 0.74728,0.74729 z"
     id="path238" />
  <path
     style="fill:#fba101;stroke:none;stroke-width:0.747288"
     d="m 194.68484,213.38874 0.7473,0.74729 -0.7473,-0.74729 m 156.93052,0 0.74729,0.74729 z"
     id="path240" />
  <path
     style="fill:#fef9c7;stroke:none;stroke-width:0.747288"
     d="m 448.01554,213.38874 0.74728,0.74729 z"
     id="path242" />
  <path
     style="fill:#736034;stroke:none;stroke-width:0.747288"
     d="m 178.99179,214.13603 0.74729,0.74729 -0.74729,-0.74729 m 13.45119,0 0.74729,0.74729 z"
     id="path244" />
  <path
     style="fill:#a56c05;stroke:none;stroke-width:0.747288"
     d="m 320.22926,214.13603 0.74728,0.74729 z"
     id="path246" />
  <path
     style="fill:#fba101;stroke:none;stroke-width:0.747288"
     d="m 179.73908,214.88332 0.74729,0.74728 z"
     id="path250" />
  <path
     style="fill:#736034;stroke:none;stroke-width:0.747288"
     d="m 180.48637,214.88332 0.74729,0.74728 -0.74729,-0.74728 m 10.46204,0 0.74728,0.74728 z"
     id="path252" />
  <path
     style="fill:#fba101;stroke:none;stroke-width:0.747288"
     d="m 191.69569,214.88332 0.74729,0.74728 z"
     id="path254" />
  <path
     style="fill:#a56c05;stroke:none;stroke-width:0.747288"
     d="m 350.86807,214.88332 0.74729,0.74728 z"
     id="path256" />
  <path
     style="fill:#736034;stroke:none;stroke-width:0.747288"
     d="m 182.47938,215.87945 0.49771,0.24959 -0.49771,-0.24959 m 6.7256,0 0.49769,0.24959 z"
     id="path258" />
  <path
     style="fill:#fef9c7;stroke:none;stroke-width:0.747288"
     d="m 448.76282,215.6306 0.74729,0.74729 z"
     id="path260" />
  <path
     style="fill:#fba101;stroke:none;stroke-width:0.747288"
     d="m 184.97009,216.37789 v 0.7473 h 2.24187 z"
     id="path262" />
  <path
     style="fill:#736034;stroke:none;stroke-width:0.747288"
     d="m 350.12079,216.37789 0.74728,0.7473 z"
     id="path264" />
  <path
     style="fill:#a56c05;stroke:none;stroke-width:0.747288"
     d="m 322.47112,217.12519 0.74729,0.74728 z"
     id="path266" />
  <path
     style="fill:#fef9c7;stroke:none;stroke-width:0.747288"
     d="m 449.51011,217.12519 0.74728,0.74728 z"
     id="path268" />
  <path
     style="fill:#a56c05;stroke:none;stroke-width:0.747288"
     d="m 323.21841,217.87247 0.74728,0.74729 z"
     id="path270" />
  <path
     style="fill:#fba101;stroke:none;stroke-width:0.747288"
     d="m 323.96569,218.61976 0.7473,0.74729 z"
     id="path272" />
  <path
     style="fill:#fef9c7;stroke:none;stroke-width:0.747288"
     d="m 450.25739,218.61976 0.7473,0.74729 z"
     id="path274" />
  <path
     style="fill:#736034;stroke:none;stroke-width:0.747288"
     d="m 325.46027,219.36705 0.74729,0.74729 z"
     id="path276" />
  <path
     style="fill:#fba101;stroke:none;stroke-width:0.747288"
     d="m 347.87892,219.36705 0.74729,0.74729 z"
     id="path278" />
  <path
     style="fill:#736034;stroke:none;stroke-width:0.747288"
     d="m 326.95485,220.11434 0.74729,0.74728 z"
     id="path280" />
  <path
     style="fill:#fef9c7;stroke:none;stroke-width:0.747288"
     d="m 451.00469,220.11434 0.74728,0.74728 -0.74728,-0.74728 m -377.878741,1.24572 0.249141,0.4977 z"
     id="path282" />
  <path
     style="fill:#fba101;stroke:none;stroke-width:0.747288"
     d="m 328.44942,220.86162 0.7473,0.7473 z"
     id="path284" />
  <path
     style="fill:#736034;stroke:none;stroke-width:0.747288"
     d="m 329.69516,221.11047 0.49769,0.24959 -0.49769,-0.24959 m 15.94189,-0.24885 0.74729,0.7473 -0.74729,-0.7473 m -11.95661,0.7473 0.7473,0.74728 -0.7473,-0.74728 m 10.46203,0 0.7473,0.74728 z"
     id="path286" />
  <path
     style="fill:#fef9c7;stroke:none;stroke-width:0.747288"
     d="m 451.75197,221.60892 0.74729,0.74728 z"
     id="path288" />
  <path
     style="fill:#fba101;stroke:none;stroke-width:0.747288"
     d="m 335.17502,222.3562 0.74729,0.74729 z"
     id="path290" />
  <path
     style="fill:#736034;stroke:none;stroke-width:0.747288"
     d="m 336.42075,222.60505 0.4977,0.24959 -0.4977,-0.24959 m 5.23101,0 0.4977,0.24959 z"
     id="path292" />
  <path
     style="fill:#a56c05;stroke:none;stroke-width:0.747288"
     d="m 342.6479,222.3562 0.74729,0.74729 z"
     id="path294" />
  <path
     style="fill:#a56c05;stroke:none;stroke-width:0.747288"
     d="m 103.51569,304.55789 0.74729,0.7473 z"
     id="path298" />
  <path
     style="fill:#010101;stroke:none;stroke-width:0.747288"
     d="m 104.26298,304.55789 c 0.0373,13.5065 8.85461,20.49439 17.93492,29.17339 5.81314,5.55684 11.92821,11.56279 20.17678,12.67476 l -1.49458,18.6822 h 0.74728 v -1.49457 h 0.7473 c -1.98256,9.24021 -0.27949,17.87139 -1.73745,26.90236 -0.63295,3.92327 -3.17299,11.71898 -0.44613,15.34931 4.72883,6.29516 21.51667,3.3329 28.33866,3.3329 27.34477,0 54.86291,1.47664 82.20169,1.49457 l 0.7473,-39.60626 -0.7473,-13.4512 v -0.74728 c 8.45857,1.57005 16.92534,0.40055 25.40781,0.0292 14.94725,-0.65463 28.69661,0.43417 43.34271,-3.09378 5.20336,-1.2532 10.54349,-1.22032 14.90466,-4.8058 3.36429,-2.76647 4.64738,-7.27336 7.03572,-10.81177 3.09527,-4.58686 6.9012,-7.62384 7.20386,-13.45119 -9.33512,6.60528 -10.22141,22.56362 -22.41865,25.76799 -31.81355,8.35842 -67.6393,4.92089 -100.13661,2.69622 -23.80636,-1.63059 -48.50573,-0.26455 -71.73967,-6.8489 -4.95974,-1.40565 -10.94403,-1.44227 -15.62579,-3.49133 -13.75758,-6.0194 -31.6756,-22.72279 -32.94794,-38.30077 z"
     id="path300" />
  <path
     style="fill:#a56c05;stroke:none;stroke-width:0.747288"
     d="m 106.00663,305.05634 0.24914,0.4977 z"
     id="path302" />
  <path
     style="fill:#736034;stroke:none;stroke-width:0.747288"
     d="m 103.51569,305.30519 v 2.98915 h 0.74729 l -0.74729,-2.98915 m 2.24186,0.74729 v 2.24186 h 0.7473 z"
     id="path304" />
  <path
     style="fill:#a56c05;stroke:none;stroke-width:0.747288"
     d="m 103.51569,308.29434 0.74729,0.74729 -0.74729,-0.74729 m 2.98916,1.49457 0.74728,0.7473 z"
     id="path306" />
  <path
     style="fill:#fef9c7;stroke:none;stroke-width:0.747288"
     d="m 463.95743,310.28736 0.2496,0.49769 z"
     id="path308" />
  <path
     style="fill:#736034;stroke:none;stroke-width:0.747288"
     d="m 104.26298,310.53621 0.74729,0.74728 -0.74729,-0.74728 m 2.24187,0 0.74728,0.74728 z"
     id="path310" />
  <path
     style="fill:#a56c05;stroke:none;stroke-width:0.747288"
     d="m 104.26298,311.28349 0.74729,0.74729 -0.74729,-0.74729 m 2.98915,0.74729 0.74729,0.74729 z"
     id="path312" />
  <path
     style="fill:#736034;stroke:none;stroke-width:0.747288"
     d="m 105.01027,312.77807 0.74728,0.74729 -0.74728,-0.74729 m 2.24186,0 0.74729,0.74729 z"
     id="path314" />
  <path
     style="fill:#fef9c7;stroke:none;stroke-width:0.747288"
     d="m 34.765181,313.52536 v 2.98915 h 0.747282 z"
     id="path316" />
  <path
     style="fill:#a56c05;stroke:none;stroke-width:0.747288"
     d="m 105.01027,313.52536 0.74728,0.74728 -0.74728,-0.74728 m 2.98915,0.74728 0.74728,0.7473 z"
     id="path318" />
  <path
     style="fill:#fef9c7;stroke:none;stroke-width:0.747288"
     d="m 463.21015,314.77108 0.24959,0.4977 z"
     id="path320" />
  <path
     style="fill:#a56c05;stroke:none;stroke-width:0.747288"
     d="m 105.75755,315.01994 0.7473,0.74728 -0.7473,-0.74728 m 2.98915,0.74728 0.7473,0.74729 z"
     id="path322" />
  <path
     style="fill:#736034;stroke:none;stroke-width:0.747288"
     d="m 106.50485,316.51451 0.74728,0.74728 -0.74728,-0.74728 m 2.24185,0 0.7473,0.74728 z"
     id="path324" />
  <path
     style="fill:#a56c05;stroke:none;stroke-width:0.747288"
     d="m 106.50485,317.26179 0.74728,0.7473 z"
     id="path326" />
  <path
     style="fill:#fef9c7;stroke:none;stroke-width:0.747288"
     d="m 462.46285,317.76024 0.2496,0.49769 z"
     id="path328" />
  <path
     style="fill:#736034;stroke:none;stroke-width:0.747288"
     d="m 109.494,318.00909 0.74728,0.74728 z"
     id="path330" />
  <path
     style="fill:#a56c05;stroke:none;stroke-width:0.747288"
     d="m 107.25213,318.75637 0.74729,0.74729 -0.74729,-0.74729 m 2.98915,0 0.74729,0.74729 -0.74729,-0.74729 m 0.74729,0.74729 0.74729,0.74729 -0.74729,-0.74729 m -2.98915,0.74729 0.74728,0.74729 z"
     id="path332" />
  <path
     style="fill:#736034;stroke:none;stroke-width:0.747288"
     d="m 111.73586,320.25095 0.74729,0.74729 z"
     id="path334" />
  <path
     style="fill:#fef9c7;stroke:none;stroke-width:0.747288"
     d="m 461.71557,320.74939 0.24959,0.4977 z"
     id="path336" />
  <path
     style="fill:#a56c05;stroke:none;stroke-width:0.747288"
     d="m 108.7467,320.99824 0.7473,0.74728 z"
     id="path338" />
  <path
     style="fill:#736034;stroke:none;stroke-width:0.747288"
     d="m 110.24128,321.74552 0.74729,0.74729 z"
     id="path340" />
  <path
     style="fill:#a56c05;stroke:none;stroke-width:0.747288"
     d="m 113.97773,321.74552 0.74728,0.74729 -0.74728,-0.74729 m -2.98916,0.74729 0.74729,0.7473 z"
     id="path342" />
  <path
     style="fill:#fef9c7;stroke:none;stroke-width:0.747288"
     d="m 460.96828,322.99126 0.2496,0.49769 z"
     id="path344" />
  <path
     style="fill:#a56c05;stroke:none;stroke-width:0.747288"
     d="m 111.73586,323.24011 0.74729,0.74728 z"
     id="path346" />
  <path
     style="fill:#736034;stroke:none;stroke-width:0.747288"
     d="m 114.72501,323.24011 0.74729,0.74728 z"
     id="path348" />
  <path
     style="fill:#a56c05;stroke:none;stroke-width:0.747288"
     d="m 112.48315,323.98739 0.74728,0.74729 -0.74728,-0.74729 m 2.98915,0 0.74728,0.74729 -0.74728,-0.74729 m 0.74728,0.74729 0.7473,0.74729 -0.7473,-0.74729 m 232.65547,0.49844 0.24959,0.4977 -0.24959,-0.4977 m -235.64462,0.24885 0.7473,0.74729 z"
     id="path350" />
  <path
     style="fill:#736034;stroke:none;stroke-width:0.747288"
     d="m 346.63319,325.98041 0.2496,0.49769 z"
     id="path352" />
  <path
     style="fill:#fef9c7;stroke:none;stroke-width:0.747288"
     d="m 459.97214,325.48197 0.7473,0.74729 z"
     id="path354" />
  <path
     style="fill:#a56c05;stroke:none;stroke-width:0.747288"
     d="m 113.97773,326.22926 0.74728,0.74728 -0.74728,-0.74728 m 3.73644,0 0.74728,0.74728 z"
     id="path356" />
  <path
     style="fill:#736034;stroke:none;stroke-width:0.747288"
     d="m 348.87505,326.7277 0.24959,0.49769 z"
     id="path358" />
  <path
     style="fill:#a56c05;stroke:none;stroke-width:0.747288"
     d="m 114.72501,326.97654 0.74729,0.7473 -0.74729,-0.7473 m 3.73644,0 0.7473,0.7473 z"
     id="path360" />
  <path
     style="fill:#fef9c7;stroke:none;stroke-width:0.747288"
     d="m 459.4737,327.47498 0.2496,0.4977 -0.2496,-0.4977 m -423.961237,0.24886 v 2.98915 h 0.747293 z"
     id="path362" />
  <path
     style="fill:#a56c05;stroke:none;stroke-width:0.747288"
     d="m 115.4723,327.72384 0.74728,0.74728 -0.74728,-0.74728 m 3.73645,0 0.74728,0.74728 -0.74728,-0.74728 m -2.98917,0.74728 0.7473,0.74729 -0.7473,-0.74729 m 3.73645,0 0.74729,0.74729 z"
     id="path364" />
  <path
     style="fill:#736034;stroke:none;stroke-width:0.747288"
     d="m 345.13862,328.96956 0.24959,0.49769 -0.24959,-0.49769 m 2.7403,-0.49844 0.74729,0.74729 z"
     id="path366" />
  <path
     style="fill:#a56c05;stroke:none;stroke-width:0.747288"
     d="m 116.96688,329.21841 0.74729,0.74728 z"
     id="path368" />
  <path
     style="fill:#736034;stroke:none;stroke-width:0.747288"
     d="m 120.70332,329.21841 0.74729,0.74728 z"
     id="path370" />
  <path
     style="fill:#fef9c7;stroke:none;stroke-width:0.747288"
     d="m 458.72642,329.71685 0.24959,0.4977 z"
     id="path372" />
  <path
     style="fill:#736034;stroke:none;stroke-width:0.747288"
     d="m 121.45061,329.96569 0.74729,0.7473 z"
     id="path374" />
  <path
     style="fill:#a56c05;stroke:none;stroke-width:0.747288"
     d="m 344.14247,329.96569 0.7473,0.7473 z"
     id="path376" />
  <path
     style="fill:#736034;stroke:none;stroke-width:0.747288"
     d="m 347.13164,329.96569 0.74728,0.7473 -0.74728,-0.7473 m -227.92289,0.7473 0.74728,0.74728 z"
     id="path378" />
  <path
     style="fill:#a56c05;stroke:none;stroke-width:0.747288"
     d="m 343.39519,330.71299 0.74728,0.74728 z"
     id="path380" />
  <path
     style="fill:#736034;stroke:none;stroke-width:0.747288"
     d="m 119.95603,331.46027 0.74729,0.74729 z"
     id="path382" />
  <path
     style="fill:#a56c05;stroke:none;stroke-width:0.747288"
     d="m 123.69247,331.46027 0.74729,0.74729 -0.74729,-0.74729 m 218.95543,0 0.74729,0.74729 -0.74729,-0.74729 m 3.73644,0 0.7473,0.74729 z"
     id="path384" />
  <path
     style="fill:#fef9c7;stroke:none;stroke-width:0.747288"
     d="m 457.73028,331.46027 0.74729,0.74729 z"
     id="path386" />
  <path
     style="fill:#a56c05;stroke:none;stroke-width:0.747288"
     d="m 120.70332,332.20756 0.74729,0.74729 -0.74729,-0.74729 m 3.73644,0 0.74729,0.74729 -0.74729,-0.74729 m 221.19729,0 0.74729,0.74729 -0.74729,-0.74729 m -224.18644,0.74729 0.74729,0.74729 -0.74729,-0.74729 m 3.73644,0 0.74728,0.74729 -0.74728,-0.74729 m 219.70272,0 0.74728,0.74729 -0.74728,-0.74729 m -222.69187,0.74729 0.74728,0.74728 -0.74728,-0.74728 m 3.73643,0 0.7473,0.74728 z"
     id="path388" />
  <path
     style="fill:#736034;stroke:none;stroke-width:0.747288"
     d="m 341.15332,333.70214 0.7473,0.74728 z"
     id="path390" />
  <path
     style="fill:#a56c05;stroke:none;stroke-width:0.747288"
     d="m 344.14247,333.70214 0.7473,0.74728 z"
     id="path392" />
  <path
     style="fill:#fef9c7;stroke:none;stroke-width:0.747288"
     d="m 456.98299,333.70214 0.74729,0.74728 -0.74729,-0.74728 m -420.474147,1.24572 0.249108,0.4977 z"
     id="path394" />
  <path
     style="fill:#a56c05;stroke:none;stroke-width:0.747288"
     d="m 122.94518,334.44942 0.74729,0.74729 -0.74729,-0.74729 m 3.73645,0 0.74728,0.74729 -0.74728,-0.74729 m 213.72441,0 0.74728,0.74729 -0.74728,-0.74729 m 2.98915,0 0.74728,0.74729 -0.74728,-0.74729 m -219.70272,0.74729 0.74729,0.74729 -0.74729,-0.74729 m 3.73644,0 0.74729,0.74729 -0.74729,-0.74729 m 212.22984,0 0.74729,0.74729 z"
     id="path396" />
  <path
     style="fill:#736034;stroke:none;stroke-width:0.747288"
     d="m 342.6479,335.19671 0.74729,0.74729 z"
     id="path398" />
  <path
     style="fill:#fef9c7;stroke:none;stroke-width:0.747288"
     d="m 456.23571,335.19671 0.74728,0.74729 z"
     id="path400" />
  <path
     style="fill:#a56c05;stroke:none;stroke-width:0.747288"
     d="m 124.43976,335.944 0.74729,0.74729 -0.74729,-0.74729 m 3.73644,0 0.74728,0.74729 -0.74728,-0.74729 m -2.98915,0.74729 0.74728,0.74728 z"
     id="path402" />
  <path
     style="fill:#736034;stroke:none;stroke-width:0.747288"
     d="m 338.91146,336.69129 0.74729,0.74728 z"
     id="path404" />
  <path
     style="fill:#a56c05;stroke:none;stroke-width:0.747288"
     d="m 341.90062,336.69129 0.74728,0.74728 -0.74728,-0.74728 m -215.96629,0.74728 0.7473,0.7473 -0.7473,-0.7473 m 212.22984,0 0.74729,0.7473 -0.74729,-0.7473 m 2.98915,0 0.7473,0.7473 z"
     id="path406" />
  <path
     style="fill:#fef9c7;stroke:none;stroke-width:0.747288"
     d="m 455.48841,337.43857 0.7473,0.7473 -0.7473,-0.7473 m -418.232274,1.24574 0.249098,0.49769 z"
     id="path408" />
  <path
     style="fill:#a56c05;stroke:none;stroke-width:0.747288"
     d="m 126.68163,338.18587 0.74728,0.74728 -0.74728,-0.74728 m 3.73643,0 0.74729,0.74728 -0.74729,-0.74728 m -2.98915,0.74728 0.74729,0.74729 z"
     id="path410" />
  <path
     style="fill:#736034;stroke:none;stroke-width:0.747288"
     d="m 131.91264,338.93315 0.74729,0.74729 z"
     id="path412" />
  <path
     style="fill:#a56c05;stroke:none;stroke-width:0.747288"
     d="m 132.65993,338.93315 0.74728,0.74729 -0.74728,-0.74729 m 204.75696,0 0.74728,0.74729 -0.74728,-0.74729 m 2.98915,0 0.74728,0.74729 z"
     id="path414" />
  <path
     style="fill:#fef9c7;stroke:none;stroke-width:0.747288"
     d="m 454.74113,338.93315 0.74728,0.74729 z"
     id="path416" />
  <path
     style="fill:#a56c05;stroke:none;stroke-width:0.747288"
     d="m 128.1762,339.68044 0.74728,0.74729 -0.74728,-0.74729 m 5.9783,0 0.7473,0.74729 z"
     id="path418" />
  <path
     style="fill:#736034;stroke:none;stroke-width:0.747288"
     d="m 339.65875,339.68044 0.74729,0.74729 z"
     id="path420" />
  <path
     style="fill:#a56c05;stroke:none;stroke-width:0.747288"
     d="m 129.67078,340.42773 0.74728,0.74729 -0.74728,-0.74729 m 5.9783,0 0.74729,0.74729 z"
     id="path422" />
  <path
     style="fill:#736034;stroke:none;stroke-width:0.747288"
     d="m 336.66959,340.42773 0.7473,0.74729 z"
     id="path424" />
  <path
     style="fill:#fef9c7;stroke:none;stroke-width:0.747288"
     d="m 38.003419,341.67346 0.249108,0.49769 z"
     id="path426" />
  <path
     style="fill:#736034;stroke:none;stroke-width:0.747288"
     d="m 131.91264,341.17502 0.74729,0.74729 -0.74729,-0.74729 m 4.48373,0 0.74728,0.74729 z"
     id="path428" />
  <path
     style="fill:#a56c05;stroke:none;stroke-width:0.747288"
     d="m 338.91146,341.17502 0.74729,0.74729 z"
     id="path430" />
  <path
     style="fill:#fef9c7;stroke:none;stroke-width:0.747288"
     d="m 453.99384,341.17502 0.74729,0.74729 z"
     id="path432" />
  <path
     style="fill:#a56c05;stroke:none;stroke-width:0.747288"
     d="m 136.39637,341.92231 0.74728,0.74728 z"
     id="path434" />
  <path
     style="fill:#736034;stroke:none;stroke-width:0.747288"
     d="m 335.92231,341.92231 0.74728,0.74728 -0.74728,-0.74728 m -202.5151,0.74728 0.74729,0.7473 z"
     id="path436" />
  <path
     style="fill:#a56c05;stroke:none;stroke-width:0.747288"
     d="m 338.16417,342.66959 0.74729,0.7473 z"
     id="path438" />
  <path
     style="fill:#fef9c7;stroke:none;stroke-width:0.747288"
     d="m 453.24655,342.66959 0.74729,0.7473 z"
     id="path440" />
  <path
     style="fill:#a56c05;stroke:none;stroke-width:0.747288"
     d="m 140.13281,343.41689 0.74729,0.74728 -0.74729,-0.74728 m 3.73644,0 0.74728,0.74728 -0.74728,-0.74728 m 191.30577,0 0.74729,0.74728 z"
     id="path442" />
  <path
     style="fill:#fef9c7;stroke:none;stroke-width:0.747288"
     d="m 38.501614,344.16417 0.747294,0.74729 z"
     id="path444" />
  <path
     style="fill:#a56c05;stroke:none;stroke-width:0.747288"
     d="m 134.1545,344.16417 0.7473,0.74729 -0.7473,-0.74729 m 11.20933,0 0.74728,0.74729 z"
     id="path446" />
  <path
     style="fill:#736034;stroke:none;stroke-width:0.747288"
     d="m 335.17502,344.16417 0.74729,0.74729 -0.74729,-0.74729 m 2.24187,0 0.74728,0.74729 z"
     id="path448" />
  <path
     style="fill:#fef9c7;stroke:none;stroke-width:0.747288"
     d="m 452.49926,344.16417 0.74729,0.74729 z"
     id="path450" />
  <path
     style="fill:#a56c05;stroke:none;stroke-width:0.747288"
     d="m 151.34213,344.91146 0.74729,0.74729 -0.74729,-0.74729 m 183.08561,0 0.74728,0.74729 -0.74728,-0.74729 m 2.98915,0 0.74728,0.74729 z"
     id="path452" />
  <path
     style="fill:#736034;stroke:none;stroke-width:0.747288"
     d="m 139.38552,345.65875 0.74729,0.74729 -0.74729,-0.74729 m 12.7039,0 0.74729,0.74729 z"
     id="path454" />
  <path
     style="fill:#a56c05;stroke:none;stroke-width:0.747288"
     d="m 152.83671,345.65875 0.74729,0.74729 z"
     id="path456" />
  <path
     style="fill:#fef9c7;stroke:none;stroke-width:0.747288"
     d="m 451.75197,345.65875 0.74729,0.74729 -0.74729,-0.74729 m -412.503062,0.74729 0.747284,0.74728 z"
     id="path458" />
  <path
     style="fill:#736034;stroke:none;stroke-width:0.747288"
     d="m 141.62738,346.40604 v 5.23101 h 0.7473 l -0.7473,-5.23101 m 2.24187,0 0.74728,0.74728 z"
     id="path460" />
  <path
     style="fill:#a56c05;stroke:none;stroke-width:0.747288"
     d="m 155.82586,346.40604 0.74729,0.74728 -0.74729,-0.74728 m 177.1073,0 0.74728,0.74728 -0.74728,-0.74728 m 3.73643,0 0.7473,0.74728 z"
     id="path462" />
  <path
     style="fill:#fba101;stroke:none;stroke-width:0.747288"
     d="m 144.61653,347.15332 1.49458,1.49458 z"
     id="path464" />
  <path
     style="fill:#736034;stroke:none;stroke-width:0.747288"
     d="m 145.36383,347.15332 0.74728,0.7473 -0.74728,-0.7473 m 12.7039,0 0.74728,0.7473 z"
     id="path466" />
  <path
     style="fill:#a56c05;stroke:none;stroke-width:0.747288"
     d="m 158.81501,347.15332 0.74729,0.7473 -0.74729,-0.7473 m 173.37086,0 0.74729,0.7473 -0.74729,-0.7473 m 3.73644,0 0.74728,0.7473 z"
     id="path468" />
  <path
     style="fill:#fef9c7;stroke:none;stroke-width:0.747288"
     d="m 451.00469,347.15332 0.74728,0.7473 z"
     id="path470" />
  <path
     style="fill:#736034;stroke:none;stroke-width:0.747288"
     d="m 144.61653,347.90062 v 12.7039 h 0.7473 l -0.7473,-12.7039 m 1.49458,0 0.74729,0.74728 z"
     id="path472" />
  <path
     style="fill:#a56c05;stroke:none;stroke-width:0.747288"
     d="m 162.3026,348.14946 0.4977,0.2496 -0.4977,-0.2496 m 168.38869,-0.24884 0.74729,0.74728 -0.74729,-0.74728 m 4.48373,0 0.74729,0.74728 z"
     id="path474" />
  <path
     style="fill:#fef9c7;stroke:none;stroke-width:0.747288"
     d="m 145.36383,348.6479 c 0,8.16636 -1.82189,15.88884 -2.21198,23.91322 -0.27126,5.5815 1.4759,11.02475 1.26665,16.44034 -0.16515,4.27897 -4.75574,11.8632 -0.84593,15.65568 5.20113,5.04345 22.47694,1.53195 29.44092,1.53195 6.49543,0 14.66852,3.08405 20.17678,-0.74729 -4.0092,-10.46278 -0.61128,-26.07289 -0.75028,-37.3644 -0.0702,-5.70555 -2.34723,-9.25816 1.49757,-14.19848 l -24.66051,-1.53493 z"
     id="path476"
     sodipodi:nodetypes="csccscsccc" />
  <path
     style="fill:#fba101;stroke:none;stroke-width:0.747288"
     d="m 147.35685,348.89675 0.49769,0.24959 z"
     id="path478" />
  <path
     style="fill:#a56c05;stroke:none;stroke-width:0.747288"
     d="m 148.85142,348.89675 0.49769,0.24959 z"
     id="path480" />
  <path
     style="fill:#736034;stroke:none;stroke-width:0.747288"
     d="m 149.84756,348.6479 v 0.74729 h 3.73644 l -3.73644,-0.74729 m 15.69305,0 0.74728,0.74729 -0.74728,-0.74729 m 164.4034,0 0.74728,0.74729 z"
     id="path482" />
  <path
     style="fill:#a56c05;stroke:none;stroke-width:0.747288"
     d="m 334.42774,348.6479 0.74728,0.74729 z"
     id="path484" />
  <path
     style="fill:#fef9c7;stroke:none;stroke-width:0.747288"
     d="m 450.25739,348.6479 0.7473,0.74729 z"
     id="path486" />
  <path
     style="fill:#fba101;stroke:none;stroke-width:0.747288"
     d="m 155.82586,349.39519 0.74729,0.74728 z"
     id="path488" />
  <path
     style="fill:#736034;stroke:none;stroke-width:0.747288"
     d="m 173.01349,349.39519 0.74729,0.74728 z"
     id="path490" />
  <path
     style="fill:#a56c05;stroke:none;stroke-width:0.747288"
     d="m 173.76078,349.39519 0.74728,0.74728 -0.74728,-0.74728 m 153.94136,0 0.74728,0.74728 z"
     id="path492" />
  <path
     style="fill:#736034;stroke:none;stroke-width:0.747288"
     d="m 328.44942,349.39519 0.7473,0.74728 z"
     id="path494" />
  <path
     style="fill:#a56c05;stroke:none;stroke-width:0.747288"
     d="m 332.93316,349.39519 0.74728,0.74728 -0.74728,-0.74728 m -154.68865,0.74728 0.74728,0.7473 -0.74728,-0.7473 m 146.96692,0.24885 0.49769,0.2496 z"
     id="path496" />
  <path
     style="fill:#736034;stroke:none;stroke-width:0.747288"
     d="m 326.20756,350.14247 0.74729,0.7473 z"
     id="path498" />
  <path
     style="fill:#fef9c7;stroke:none;stroke-width:0.747288"
     d="m 449.51011,350.14247 0.74728,0.7473 -0.74728,-0.7473 m -408.766624,0.7473 0.747282,0.74728 z"
     id="path500" />
  <path
     style="fill:#736034;stroke:none;stroke-width:0.747288"
     d="m 164.79331,350.88977 0.7473,0.74728 z"
     id="path502" />
  <path
     style="fill:#a56c05;stroke:none;stroke-width:0.747288"
     d="m 193.93756,350.88977 0.74728,0.74728 -0.74728,-0.74728 m 126.04285,0.24884 0.49769,0.2496 z"
     id="path504" />
  <path
     style="fill:#736034;stroke:none;stroke-width:0.747288"
     d="m 321.47498,351.13861 0.4977,0.2496 z"
     id="path506" />
  <path
     style="fill:#a56c05;stroke:none;stroke-width:0.747288"
     d="m 330.69129,350.88977 0.74729,0.74728 -0.74729,-0.74728 m -189.81119,0.74728 0.74728,0.74729 z"
     id="path508" />
  <path
     style="fill:#fba101;stroke:none;stroke-width:0.747288"
     d="m 165.54061,351.63705 0.74728,0.74729 z"
     id="path510" />
  <path
     style="fill:#a56c05;stroke:none;stroke-width:0.747288"
     d="m 196.17942,351.63705 0.74729,0.74729 -0.74729,-0.74729 m 120.31339,0 0.7473,0.74729 z"
     id="path512" />
  <path
     style="fill:#736034;stroke:none;stroke-width:0.747288"
     d="m 317.24011,351.63705 0.74728,0.74729 -0.74728,-0.74729 m 11.20931,0 0.7473,0.74729 z"
     id="path514" />
  <path
     style="fill:#a56c05;stroke:none;stroke-width:0.747288"
     d="m 329.19672,351.63705 0.74729,0.74729 z"
     id="path516" />
  <path
     style="fill:#fef9c7;stroke:none;stroke-width:0.747288"
     d="m 448.76282,351.63705 0.74729,0.74729 -0.74729,-0.74729 m -407.272052,0.74729 0.747294,0.74729 z"
     id="path518" />
  <path
     style="fill:#736034;stroke:none;stroke-width:0.747288"
     d="m 140.8801,352.38434 v 8.22018 h 0.74728 z"
     id="path520" />
  <path
     style="fill:#a56c05;stroke:none;stroke-width:0.747288"
     d="m 201.41044,352.38434 0.74728,0.74729 z"
     id="path522" />
  <path
     style="fill:#fef9c7;stroke:none;stroke-width:0.747288"
     d="m 202.15772,352.38434 v 0.74729 h 8.96747 z"
     id="path524" />
  <path
     style="fill:#736034;stroke:none;stroke-width:0.747288"
     d="m 314.99824,352.38434 0.74729,0.74729 -0.74729,-0.74729 m 10.46203,0 0.74729,0.74729 z"
     id="path526" />
  <path
     style="fill:#a56c05;stroke:none;stroke-width:0.747288"
     d="m 326.70601,352.63318 0.49769,0.2496 -0.49769,-0.2496 m -98.39319,0.49845 0.74728,0.74729 -0.74728,-0.74729 m 84.19471,0.24885 0.49769,0.24959 z"
     id="path528" />
  <path
     style="fill:#736034;stroke:none;stroke-width:0.747288"
     d="m 320.22926,353.13163 v 0.74729 h 2.24186 z"
     id="path530" />
  <path
     style="fill:#a56c05;stroke:none;stroke-width:0.747288"
     d="m 322.96956,353.38048 0.49769,0.24959 z"
     id="path532" />
  <path
     style="fill:#fef9c7;stroke:none;stroke-width:0.747288"
     d="m 448.01554,353.13163 0.74728,0.74729 -0.74728,-0.74729 m -405.777478,0.74729 0.747282,0.74728 z"
     id="path534" />
  <path
     style="fill:#a56c05;stroke:none;stroke-width:0.747288"
     d="m 304.53621,353.87892 v 0.74728 h 3.73643 z"
     id="path536" />
  <path
     style="fill:#736034;stroke:none;stroke-width:0.747288"
     d="m 308.77108,354.12776 0.49771,0.2496 -0.49771,-0.2496 m 8.46903,-0.24884 0.74728,0.74728 z"
     id="path538" />
  <path
     style="fill:#a56c05;stroke:none;stroke-width:0.747288"
     d="m 317.98739,353.87892 0.74729,0.74728 -0.74729,-0.74728 m -64.26678,0.74728 0.74729,0.74729 -0.74729,-0.74729 m 17.68607,0.24885 0.49769,0.24959 z"
     id="path540" />
  <path
     style="fill:#736034;stroke:none;stroke-width:0.747288"
     d="m 272.40281,354.6262 v 0.74729 h 2.24187 l -2.24187,-0.74729 m 42.59543,0 0.74729,0.74729 z"
     id="path542" />
  <path
     style="fill:#a56c05;stroke:none;stroke-width:0.747288"
     d="m 315.74553,354.6262 0.74728,0.74729 z"
     id="path544" />
  <path
     style="fill:#fef9c7;stroke:none;stroke-width:0.747288"
     d="m 447.26824,354.6262 0.7473,0.74729 z"
     id="path546" />
  <path
     style="fill:#736034;stroke:none;stroke-width:0.747288"
     d="m 191.69569,355.37349 0.74729,0.74729 -0.74729,-0.74729 m 121.06069,0 0.74728,0.74729 z"
     id="path548" />
  <path
     style="fill:#a56c05;stroke:none;stroke-width:0.747288"
     d="m 313.50366,355.37349 0.7473,0.74729 z"
     id="path550" />
  <path
     style="fill:#fef9c7;stroke:none;stroke-width:0.747288"
     d="m 195.43214,356.12078 0.003,35.86983 -0.75028,16.44034 53.80475,-0.74729 c -1.4617,-6.15615 0.78166,-11.83555 1.3623,-17.93491 0.48051,-5.05017 -0.61502,-10.56292 -0.61502,-15.69305 0,-9.31943 0.65612,-15.46364 -10.46203,-15.69305 -0.50068,-3.35084 -7.0671,-2.3181 -9.71475,-1.93398 -11.16223,1.61936 -22.46422,-0.30789 -33.62796,-0.30789 z"
     id="path552"
     sodipodi:nodetypes="cccccscssc" />
  <path
     style="fill:#a56c05;stroke:none;stroke-width:0.747288"
     d="m 237.28027,356.12078 0.74728,0.74729 z"
     id="path554" />
  <path
     style="fill:#736034;stroke:none;stroke-width:0.747288"
     d="m 307.52536,356.12078 v 0.74729 h 2.24186 z"
     id="path556" />
  <path
     style="fill:#a56c05;stroke:none;stroke-width:0.747288"
     d="m 310.26566,356.36963 0.4977,0.24959 z"
     id="path558" />
  <path
     style="fill:#fef9c7;stroke:none;stroke-width:0.747288"
     d="m 446.52096,356.12078 0.74728,0.74729 z"
     id="path560" />
  <path
     style="fill:#736034;stroke:none;stroke-width:0.747288"
     d="m 190.94841,356.86807 v 4.48373 h 0.74728 l -0.74728,-4.48373 m 3.73643,0 v 2.24187 h 0.7473 z"
     id="path562" />
  <path
     style="fill:#fba101;stroke:none;stroke-width:0.747288"
     d="m 219.34535,356.86807 0.74729,0.74728 z"
     id="path564" />
  <path
     style="fill:#a56c05;stroke:none;stroke-width:0.747288"
     d="m 220.09264,356.86807 0.74729,0.74728 z"
     id="path566" />
  <path
     style="fill:#fba101;stroke:none;stroke-width:0.747288"
     d="m 239.52213,356.86807 -0.74728,1.49458 z"
     id="path568" />
  <path
     style="fill:#a56c05;stroke:none;stroke-width:0.747288"
     d="m 239.52213,357.61535 v 0.7473 l 2.98916,-0.7473 z"
     id="path570" />
  <path
     style="fill:#736034;stroke:none;stroke-width:0.747288"
     d="m 242.51129,356.86807 0.74728,0.74728 z"
     id="path572" />
  <path
     style="fill:#a56c05;stroke:none;stroke-width:0.747288"
     d="m 250.73145,356.86807 0.7473,0.74728 z"
     id="path574" />
  <path
     style="fill:#fba101;stroke:none;stroke-width:0.747288"
     d="m 251.47875,356.86807 0.74728,0.74728 z"
     id="path576" />
  <path
     style="fill:#a56c05;stroke:none;stroke-width:0.747288"
     d="m 252.22603,356.86807 0.74729,0.74728 z"
     id="path578" />
  <path
     style="fill:#736034;stroke:none;stroke-width:0.747288"
     d="m 272.90125,357.11692 0.4977,0.24959 z"
     id="path580" />
  <path
     style="fill:#a56c05;stroke:none;stroke-width:0.747288"
     d="m 273.89739,356.86807 v 0.74728 h 2.24187 z"
     id="path582" />
  <path
     style="fill:#fef9c7;stroke:none;stroke-width:0.747288"
     d="m 43.732637,357.61535 0.747283,0.7473 z"
     id="path584" />
  <path
     style="fill:#736034;stroke:none;stroke-width:0.747288"
     d="m 142.37468,357.61535 v 2.24187 h 0.74728 l -0.74728,-2.24187 m 97.89474,0 0.7473,0.7473 z"
     id="path586" />
  <path
     style="fill:#fef9c7;stroke:none;stroke-width:0.747288"
     d="m 445.77367,357.61535 0.74729,0.7473 -0.74729,-0.7473 m -401.29375,0.7473 0.747293,0.74729 z"
     id="path588" />
  <path
     style="fill:#a56c05;stroke:none;stroke-width:0.747288"
     d="m 243.25857,358.36265 0.7473,0.74729 z"
     id="path590" />
  <path
     style="fill:#736034;stroke:none;stroke-width:0.747288"
     d="m 252.22603,358.36265 v 2.24187 h 0.74729 z"
     id="path592" />
  <path
     style="fill:#fef9c7;stroke:none;stroke-width:0.747288"
     d="m 445.02638,358.36265 0.74729,0.74729 z"
     id="path594" />
  <path
     style="fill:#a56c05;stroke:none;stroke-width:0.747288"
     d="m 194.68484,359.10994 0.7473,0.74728 z"
     id="path596" />
  <path
     style="fill:#fba101;stroke:none;stroke-width:0.747288"
     d="m 246.99502,359.10994 1.49458,2.24186 z"
     id="path598" />
  <path
     style="fill:#fef9c7;stroke:none;stroke-width:0.747288"
     d="m 45.227213,359.85722 0.747294,0.7473 z"
     id="path600" />
  <path
     style="fill:#736034;stroke:none;stroke-width:0.747288"
     d="m 248.73844,360.35566 0.2496,0.4977 z"
     id="path602" />
  <path
     style="fill:#fef9c7;stroke:none;stroke-width:0.747288"
     d="m 444.27909,359.85722 0.74729,0.7473 z"
     id="path604" />
  <path
     style="fill:#736034;stroke:none;stroke-width:0.747288"
     d="m 193.93756,360.60452 0.74728,0.74728 z"
     id="path606" />
  <path
     style="fill:#fef9c7;stroke:none;stroke-width:0.747288"
     d="m 45.974507,361.3518 0.747282,0.74729 z"
     id="path608" />
  <path
     style="fill:#736034;stroke:none;stroke-width:0.747288"
     d="m 140.13281,361.3518 v 8.22017 h 0.74729 l 1.49458,-5.9783 h -0.7473 v 1.49457 h -0.74728 l -0.74729,-3.73644 m 3.73644,0 v 5.9783 h 0.74728 z"
     id="path610" />
  <path
     style="fill:#fba101;stroke:none;stroke-width:0.747288"
     d="m 245.74928,361.85024 0.24961,0.49769 z"
     id="path612" />
  <path
     style="fill:#736034;stroke:none;stroke-width:0.747288"
     d="m 251.47875,361.3518 v 20.17678 h 0.74728 z"
     id="path614" />
  <path
     style="fill:#fef9c7;stroke:none;stroke-width:0.747288"
     d="m 443.53181,361.3518 0.74728,0.74729 z"
     id="path616" />
  <path
     style="fill:#736034;stroke:none;stroke-width:0.747288"
     d="m 191.69569,362.09909 0.74729,0.74728 -0.74729,-0.74728 m 2.98915,0 v 14.19847 h 0.7473 l -0.7473,-14.19847 m 54.55204,0 v 18.68221 h 0.74729 z"
     id="path618" />
  <path
     style="fill:#fef9c7;stroke:none;stroke-width:0.747288"
     d="m 442.78451,362.09909 0.7473,0.74728 -0.7473,-0.74728 m -396.062721,0.74728 0.747293,0.7473 z"
     id="path620" />
  <path
     style="fill:#fba101;stroke:none;stroke-width:0.747288"
     d="m 191.69569,362.84637 0.74729,0.7473 z"
     id="path622" />
  <path
     style="fill:#fef9c7;stroke:none;stroke-width:0.747288"
     d="m 442.03723,363.59367 0.74728,0.74728 z"
     id="path624" />
  <path
     style="fill:#736034;stroke:none;stroke-width:0.747288"
     d="m 192.44298,364.34095 v 28.39695 h 0.74729 c 0,-8.15366 2.39954,-20.89717 -0.74729,-28.39695 z"
     id="path626" />
  <path
     style="fill:#fef9c7;stroke:none;stroke-width:0.747288"
     d="m 441.28994,364.34095 0.74729,0.74729 -0.74729,-0.74729 m -393.073575,0.74729 0.747293,0.74729 -0.747293,-0.74729 m 392.326295,0.74729 0.74728,0.74729 -0.74728,-0.74729 m -391.579002,0.74729 0.747283,0.74728 -0.747283,-0.74728 m 390.831702,0 0.7473,0.74728 -0.7473,-0.74728 m -390.084419,0.74728 0.747293,0.7473 z"
     id="path628" />
  <path
     style="fill:#736034;stroke:none;stroke-width:0.747288"
     d="m 143.37081,368.57584 0.24959,0.49769 z"
     id="path630" />
  <path
     style="fill:#fef9c7;stroke:none;stroke-width:0.747288"
     d="m 439.04808,368.0774 0.74728,0.74728 -0.74728,-0.74728 m -388.589846,0.74728 0.747283,0.74729 -0.747283,-0.74729 m 387.842556,0 0.74729,0.74729 -0.74729,-0.74729 m -387.095273,0.74729 0.747293,0.74728 z"
     id="path632" />
  <path
     style="fill:#736034;stroke:none;stroke-width:0.747288"
     d="m 142.37468,370.31925 v 11.95662 h 0.74728 z"
     id="path634" />
  <path
     style="fill:#fef9c7;stroke:none;stroke-width:0.747288"
     d="m 51.95281,371.06655 0.747283,0.74728 -0.747283,-0.74728 m 384.8534,0 0.74729,0.74728 -0.74729,-0.74728 m -384.106117,0.74728 0.747293,0.74729 -0.747293,-0.74729 m 383.358827,0 0.74729,0.74729 -0.74729,-0.74729 m -382.611534,0.74729 0.747283,0.74729 -0.747283,-0.74729 m 381.116954,1.49458 0.7473,0.74728 -0.7473,-0.74728 m -379.622378,0.74728 0.747283,0.74729 -0.747283,-0.74729 m 378.875098,0 0.74728,0.74729 -0.74728,-0.74729 m -378.127815,0.74729 0.747293,0.74729 -0.747293,-0.74729 m 377.380525,0 0.74729,0.74729 -0.74729,-0.74729 m -376.633232,0.74729 0.747282,0.74729 -0.747282,-0.74729 m 375.885942,0 0.74729,0.74729 z"
     id="path636" />
  <path
     style="fill:#736034;stroke:none;stroke-width:0.747288"
     d="m 195.43214,377.04485 v 2.24187 h 0.74728 z"
     id="path638" />
  <path
     style="fill:#fef9c7;stroke:none;stroke-width:0.747288"
     d="m 431.57519,377.04485 0.74729,0.74729 -0.74729,-0.74729 m -374.39137,0.74729 0.747294,0.74729 -0.747294,-0.74729 m 373.64409,0 0.74728,0.74729 -0.74728,-0.74729 m -372.896796,0.74729 0.747282,0.74729 -0.747282,-0.74729 m 372.149496,0 0.7473,0.74729 -0.7473,-0.74729 m -371.402214,0.74729 0.747294,0.74728 -0.747294,-0.74728 m 370.654934,0 0.74728,0.74728 -0.74728,-0.74728 m -369.90764,0.74728 0.747282,0.7473 z"
     id="path640" />
  <path
     style="fill:#736034;stroke:none;stroke-width:0.747288"
     d="m 196.17942,380.034 v 5.23102 h 0.74729 z"
     id="path642" />
  <path
     style="fill:#fef9c7;stroke:none;stroke-width:0.747288"
     d="m 428.58604,380.034 0.74729,0.7473 -0.74729,-0.7473 m -368.413068,0.7473 0.747293,0.74728 -0.747293,-0.74728 m 367.665788,0 0.74728,0.74728 z"
     id="path644" />
  <path
     style="fill:#a56c05;stroke:none;stroke-width:0.747288"
     d="m 251.47875,381.52858 0.74728,0.74729 z"
     id="path646" />
  <path
     style="fill:#fef9c7;stroke:none;stroke-width:0.747288"
     d="m 427.09146,381.52858 0.7473,0.74729 z"
     id="path648" />
  <path
     style="fill:#a56c05;stroke:none;stroke-width:0.747288"
     d="m 252.47488,382.77431 0.24959,0.4977 z"
     id="path650" />
  <path
     style="fill:#fef9c7;stroke:none;stroke-width:0.747288"
     d="m 426.34418,382.27587 0.74728,0.74728 -0.74728,-0.74728 m -364.676632,0.74728 0.747293,0.7473 z"
     id="path652" />
  <path
     style="fill:#736034;stroke:none;stroke-width:0.747288"
     d="m 140.13281,383.02315 v 8.96746 h 0.74729 l -0.74729,-8.96746 m 2.98915,0 v 2.24187 h 0.74729 l -0.74729,-2.24187 m 106.11492,0 v 2.24187 h 0.74729 z"
     id="path654" />
  <path
     style="fill:#fef9c7;stroke:none;stroke-width:0.747288"
     d="m 425.59689,383.02315 0.74729,0.7473 -0.74729,-0.7473 m -363.182049,0.7473 0.747294,0.74728 z"
     id="path656" />
  <path
     style="fill:#fef9c7;stroke:none;stroke-width:0.747288"
     d="m 424.8496,383.77045 0.74729,0.74728 -0.74729,-0.74728 m -361.687465,0.74728 0.747282,0.74729 -0.747282,-0.74729 m 360.940175,0 0.74729,0.74729 -0.74729,-0.74729 m -360.192893,0.74729 0.747294,0.74729 -0.747294,-0.74729 m 359.445613,0 0.74728,0.74729 -0.74728,-0.74729 m -358.698319,0.74729 0.747282,0.74729 z"
     id="path660" />
  <path
     style="fill:#736034;stroke:none;stroke-width:0.747288"
     d="m 143.86925,386.01231 v 5.23102 h 0.74728 l -0.74728,-5.23102 m 51.81173,0.49844 0.2496,0.49769 -0.2496,-0.49769 m 54.55203,0 0.2496,0.49769 z"
     id="path662" />
  <path
     style="fill:#fef9c7;stroke:none;stroke-width:0.747288"
     d="m 422.60773,386.01231 0.7473,0.74729 -0.7473,-0.74729 m -357.203737,0.74729 0.747293,0.74728 -0.747293,-0.74728 m 356.456457,0 0.74728,0.74728 -0.74728,-0.74728 m -355.709164,0.74728 0.747283,0.74729 z"
     id="path664" />
  <path
     style="fill:#736034;stroke:none;stroke-width:0.747288"
     d="m 141.62738,387.50688 v 2.24187 h 0.7473 z"
     id="path666" />
  <path
     style="fill:#fef9c7;stroke:none;stroke-width:0.747288"
     d="m 421.11316,387.50688 0.74729,0.74729 -0.74729,-0.74729 m -354.214591,0.74729 0.747293,0.74729 z"
     id="path668" />
  <path
     style="fill:#736034;stroke:none;stroke-width:0.747288"
     d="m 194.68484,388.25417 v 10.46204 h 0.7473 z"
     id="path670" />
  <path
     style="fill:#fef9c7;stroke:none;stroke-width:0.747288"
     d="m 420.36588,388.25417 0.74728,0.74729 -0.74728,-0.74729 m -352.720018,0.74729 0.747283,0.74729 -0.747283,-0.74729 m 0.747283,0.74729 0.747293,0.74728 -0.747293,-0.74728 m 0.747293,0.74728 0.747283,0.7473 -0.747283,-0.7473 m 0.747283,0.7473 0.747293,0.74728 z"
     id="path672" />
  <path
     style="fill:#736034;stroke:none;stroke-width:0.747288"
     d="m 249.23688,391.24333 v 2.98915 h 0.74729 z"
     id="path674" />
  <path
     style="fill:#fef9c7;stroke:none;stroke-width:0.747288"
     d="m 418.12401,391.24333 0.74729,0.74728 -0.74729,-0.74728 m -347.488996,0.74728 0.747283,0.74729 z"
     id="path676" />
  <path
     style="fill:#736034;stroke:none;stroke-width:0.747288"
     d="m 140.8801,391.99061 0.74728,0.74729 -0.74728,-0.74729 m 2.24186,0 v 2.24187 h 0.74729 z"
     id="path678" />
  <path
     style="fill:#fef9c7;stroke:none;stroke-width:0.747288"
     d="m 417.37671,391.99061 0.7473,0.74729 -0.7473,-0.74729 m -345.994413,0.74729 0.747293,0.74729 z"
     id="path680" />
  <path
     style="fill:#736034;stroke:none;stroke-width:0.747288"
     d="m 139.63436,393.23634 0.24961,0.4977 z"
     id="path682" />
  <path
     style="fill:#fef9c7;stroke:none;stroke-width:0.747288"
     d="m 416.62943,392.7379 0.74728,0.74729 -0.74728,-0.74729 m -344.49984,0.74729 0.747283,0.74729 z"
     id="path684" />
  <path
     style="fill:#736034;stroke:none;stroke-width:0.747288"
     d="m 191.69569,393.48519 v 10.46204 h 0.74729 z"
     id="path686" />
  <path
     style="fill:#fef9c7;stroke:none;stroke-width:0.747288"
     d="m 72.876873,394.23248 0.747293,0.74729 z"
     id="path688" />
  <path
     style="fill:#fba101;stroke:none;stroke-width:0.747288"
     d="m 248.4896,394.23248 0.74728,0.74729 z"
     id="path690" />
  <path
     style="fill:#736034;stroke:none;stroke-width:0.747288"
     d="m 138.63823,394.97977 v 10.46203 h 0.74729 l -0.74729,-10.46203 m 109.85137,0 v 4.48373 h 0.74728 z"
     id="path692" />
  <path
     style="fill:#fef9c7;stroke:none;stroke-width:0.747288"
     d="m 415.13486,394.97977 0.74728,0.74728 -0.74728,-0.74728 m -340.016118,0.74728 0.747282,0.7473 z"
     id="path694" />
  <path
     style="fill:#736034;stroke:none;stroke-width:0.747288"
     d="m 141.62738,395.72705 v 8.22018 h 0.7473 z"
     id="path696" />
  <path
     style="fill:#cb842e;fill-opacity:1;stroke-width:0.323712"
     d="m 213.45642,88.266254 c 24.60257,25.969376 75.17452,1.366809 75.17452,1.366809 0,0 -47.83832,-6.150642 -75.17452,-1.366809 z"
     id="path888" />
  <path
     style="fill:#513412;fill-opacity:1;stroke-width:0.323712"
     d="m 223.02408,48.628781 c 10.25108,11.61788 19.81875,43.737901 19.81875,43.737901 l 6.83404,-0.683405 c 0,0 -10.93447,-40.320876 -18.45193,-45.104709 -7.51745,-4.783834 -8.20086,2.050213 -8.20086,2.050213 z"
     id="path5431" />
  <path
     style="fill:#6b7946;fill-opacity:1;stroke-width:0.323712"
     d="M 238.7424,66.397304 C 277.01305,6.9410956 327.585,15.141952 341.9365,8.3079048 356.288,1.4738575 305.03266,117.65265 238.7424,66.397304 Z"
     id="path6135" />
  <path
     style="fill:#5c6641;fill-opacity:1;stroke-width:0.323712"
     d="M 240.60508,66.486216 C 327.39746,54.868337 329.44768,15.230864 343.79918,8.3968174 358.15068,1.5627702 306.89533,117.74157 240.60508,66.486216 Z"
     id="path6135-3"
     sodipodi:nodetypes="csc" />
  <path
     style="fill:#cb842e;fill-opacity:1;stroke-width:0.323712"
     d="m 390.45824,126.53692 c 185.88607,178.36862 -29.3864,334.1849 -29.3864,334.1849 0,0 133.26391,-167.43416 29.3864,-334.1849 z"
     id="path7406" />
  <circle
     style="fill:#cb842e;stroke-width:0.323712"
     id="path1185"
     cx="63.790798"
     cy="276.88593"
     r="5.1996517" />
  <circle
     style="fill:#cb842e;stroke-width:0.323712"
     id="path1185-3"
     cx="77.4589"
     cy="233.14804"
     r="5.1996517" />
  <circle
     style="fill:#cb842e;stroke-width:0.323712"
     id="path1185-6"
     cx="109.57891"
     cy="221.53018"
     r="5.1996517" />
  <circle
     style="fill:#cb842e;stroke-width:0.323712"
     id="path1185-7"
     cx="95.91082"
     cy="270.05188"
     r="5.1996517" />
  <circle
     style="fill:#cb842e;stroke-width:0.323712"
     id="path1185-5"
     cx="73.358475"
     cy="309.00598"
     r="5.1996517" />
  <circle
     style="fill:#cb842e;stroke-width:0.323712"
     id="path1185-62"
     cx="377.47354"
     cy="311.05618"
     r="5.1996517" />
  <circle
     style="fill:#cb842e;stroke-width:0.323712"
     id="path1185-70"
     cx="401.39267"
     cy="331.55832"
     r="5.1996517" />
  <circle
     style="fill:#cb842e;stroke-width:0.323712"
     id="path1185-9"
     cx="402.07611"
     cy="288.50378"
     r="5.1996517" />
  <circle
     style="fill:#cb842e;stroke-width:0.323712"
     id="path1185-1"
     cx="378.15695"
     cy="272.10208"
     r="5.1996517" />
  <circle
     style="fill:#cb842e;stroke-width:0.323712"
     id="path1185-2"
     cx="411.6438"
     cy="243.39911"
     r="5.1996517" />
</svg>
